<?xml version="1.0" encoding="UTF-8" standalone="no"?>
<svg width="300px" height="300px" viewBox="0 0 300 300" version="1.1" xmlns="http://www.w3.org/2000/svg" xmlns:xlink="http://www.w3.org/1999/xlink">
    <!-- Generator: Sketch 3.6.1 (26313) - http://www.bohemiancoding.com/sketch -->
    <title>Group 2</title>
    <desc>Created with Sketch.</desc>
    <defs>
        <radialGradient cx="0%" cy="100%" fx="0%" fy="100%" r="213.704679%" id="radialGradient-1">
            <stop stop-color="#009AD9" offset="0%"></stop>
            <stop stop-color="#11E6FF" offset="100%"></stop>
        </radialGradient>
    </defs>
    <g id="Page-1" stroke="none" stroke-width="1" fill="none" fill-rule="evenodd">
        <g id="Group-2">
            <g id="Group">
                <rect id="B" fill="url(#radialGradient-1)" x="0" y="0" width="300" height="300" rx="20"></rect>
                <rect id="B-Copy" fill="#A82E2E" opacity="0.5" x="0" y="0" width="300" height="300" rx="20"></rect>
            </g>
            <rect id="Rectangle-104" fill="#B8B8B8" style="mix-blend-mode: overlay;" x="37.15625" y="158.15625" width="105" height="105"></rect>
            <rect id="Rectangle-104-Copy" fill="#B8B8B8" style="mix-blend-mode: overlay;" x="37.15625" y="36.15625" width="105" height="105" rx="10"></rect>
            <rect id="Rectangle-104-Copy-2" fill="#B8B8B8" style="mix-blend-mode: overlay;" x="159.15625" y="36.15625" width="105" height="105"></rect>
            <rect id="Rectangle-104-Copy-3" fill="#FF8833" x="159.15625" y="158.15625" width="105" height="105"></rect>
            <path d="M72.03125,97.1875 L80.75,97.1875 L80.75,105.90625 C80.75,110.719 84.656,114.625 89.46875,114.625 C94.2815,114.625 98.1875,110.719 98.1875,105.90625 L98.1875,97.1875 L106.90625,97.1875 C111.719,97.1875 115.625,93.2815 115.625,88.46875 C115.625,83.656 111.719,79.75 106.90625,79.75 L98.1875,79.75 L98.1875,71.03125 C98.1875,66.2185 94.2815,62.3125 89.46875,62.3125 C84.656,62.3125 80.75,66.2185 80.75,71.03125 L80.75,79.75 L72.03125,79.75 C67.2185,79.75 63.3125,83.656 63.3125,88.46875 C63.3125,93.2815 67.2185,97.1875 72.03125,97.1875 L72.03125,97.1875 L72.03125,97.1875 Z M113.04425,186.95575 C109.504437,183.415937 103.7675,183.415937 100.232047,186.95575 L89.46875,197.723406 L78.7010937,186.95575 C75.1612812,183.415937 69.4287031,183.415937 65.89325,186.95575 C62.3577969,190.495562 62.3534375,196.228141 65.89325,199.763594 L76.6609062,210.53125 L65.89325,221.298906 C62.3534375,224.834359 62.3534375,230.566937 65.89325,234.10675 C69.4330625,237.642203 75.1656406,237.642203 78.7010937,234.10675 L89.46875,223.339094 L100.232047,234.10675 C103.771859,237.642203 109.508797,237.642203 113.04425,234.10675 C116.579703,230.562578 116.579703,224.83 113.04425,221.298906 L102.276594,210.53125 L113.04425,199.763594 C116.579703,196.228141 116.579703,190.491203 113.04425,186.95575 L113.04425,186.95575 L113.04425,186.95575 Z M228.96875,79.75 L194.09375,79.75 C189.281,79.75 185.375,83.656 185.375,88.46875 C185.375,93.2815 189.281,97.1875 194.09375,97.1875 L228.96875,97.1875 C233.7815,97.1875 237.6875,93.2815 237.6875,88.46875 C237.6875,83.656 233.7815,79.75 228.96875,79.75 L228.96875,79.75 L228.96875,79.75 Z" id="Shape" fill="#FFFFFF"></path>
            <path d="M194.09375,201.8125 L228.96875,201.8125 C233.7815,201.8125 237.6875,197.9065 237.6875,193.09375 C237.6875,188.281 233.7815,184.375 228.96875,184.375 L194.09375,184.375 C189.281,184.375 185.375,188.281 185.375,193.09375 C185.375,197.9065 189.281,201.8125 194.09375,201.8125 L194.09375,201.8125 L194.09375,201.8125 Z M228.96875,219.25 L194.09375,219.25 C189.281,219.25 185.375,223.156 185.375,227.96875 C185.375,232.7815 189.281,236.6875 194.09375,236.6875 L228.96875,236.6875 C233.7815,236.6875 237.6875,232.7815 237.6875,227.96875 C237.6875,223.156 233.7815,219.25 228.96875,219.25 L228.96875,219.25 L228.96875,219.25 Z" id="Shape" fill="#FFFFFF"></path>
        </g>
    </g>
</svg>