<?xml version="1.0" encoding="iso-8859-1"?>
<!-- Generator: Adobe Illustrator 16.0.0, SVG Export Plug-In . SVG Version: 6.00 Build 0)  -->
<!DOCTYPE svg PUBLIC "-//W3C//DTD SVG 1.1//EN" "http://www.w3.org/Graphics/SVG/1.1/DTD/svg11.dtd">
<svg version="1.1" id="Layer_1" xmlns="http://www.w3.org/2000/svg" xmlns:xlink="http://www.w3.org/1999/xlink" x="0px" y="0px"
	 width="32px" height="23px" viewBox="0 0 32 23" style="enable-background:new 0 0 32 23;" xml:space="preserve">
<g id="Cloud">
	<g>
		<path style="fill-rule:evenodd;clip-rule:evenodd;fill:#48A0DC;" d="M26.976,9.301c0.004-0.102,0.016-0.201,0.016-0.304
			c0-4.969-4.03-8.997-9.002-8.997c-3.72,0-6.911,2.255-8.283,5.47C9.03,5.173,8.285,5.006,7.5,5.006
			c-3.035,0-5.496,2.463-5.496,5.5c0,0.193,0.011,0.385,0.03,0.573C0.777,12.343,0,14.084,0,16.007C0,19.869,3.133,23,6.998,23
			c0.005,0,0.01-0.001,0.015-0.001V23h17.974v-0.001c0.005,0,0.011,0.001,0.016,0.001C28.867,23,32,19.869,32,16.007
			C32,12.83,29.879,10.152,26.976,9.301z"/>
	</g>
</g>
<g id="Refresh">
	<g>
		<path style="fill-rule:evenodd;clip-rule:evenodd;fill:#FFFFFF;" d="M10.09,12H11h1.142H14c0.552,0,1-0.447,1-1
			c0-0.552-0.448-1-1-1h-0.616C14.083,9.383,14.992,9,16,9c1.861,0,3.412,1.278,3.858,3h2.052C21.433,9.164,18.972,7.001,16,7.001
			c-1.543,0-2.939,0.593-4,1.551V8c0-0.553-0.448-0.999-1-0.999c-0.553,0-1,0.446-1,0.999v3c0,0.115,0.025,0.221,0.064,0.321
			c0.032,0.093,0.081,0.173,0.138,0.252C10.166,11.716,10.114,11.853,10.09,12z M21.936,14.679
			c-0.032-0.093-0.081-0.173-0.138-0.251c0.036-0.144,0.088-0.28,0.112-0.428H21h-1.142H18c-0.553,0-1,0.447-1,1s0.447,1,1,1h0.616
			c-0.699,0.617-1.608,1-2.616,1c-1.861,0-3.412-1.278-3.858-3H10.09c0.478,2.836,2.938,5,5.91,5c1.543,0,2.939-0.593,4-1.551V18
			c0,0.553,0.447,1,1,1c0.552,0,1-0.447,1-1v-3C22,14.885,21.975,14.779,21.936,14.679z"/>
	</g>
</g>
<g>
</g>
<g>
</g>
<g>
</g>
<g>
</g>
<g>
</g>
<g>
</g>
<g>
</g>
<g>
</g>
<g>
</g>
<g>
</g>
<g>
</g>
<g>
</g>
<g>
</g>
<g>
</g>
<g>
</g>
</svg>
