<?xml version="1.0" encoding="iso-8859-1"?>
<!-- Generator: Adobe Illustrator 16.0.0, SVG Export Plug-In . SVG Version: 6.00 Build 0)  -->
<!DOCTYPE svg PUBLIC "-//W3C//DTD SVG 1.1//EN" "http://www.w3.org/Graphics/SVG/1.1/DTD/svg11.dtd">
<svg version="1.1" id="Layer_1" xmlns="http://www.w3.org/2000/svg" xmlns:xlink="http://www.w3.org/1999/xlink" x="0px" y="0px"
	 width="64px" height="64px" viewBox="0 0 64 64" style="enable-background:new 0 0 64 64;" xml:space="preserve">
<g id="Suit_2_">
	<g>
		<path style="fill:#666666;" d="M4,47.999c-3.761,3.76-4,16-4,16h26l-4-22C22,41.999,5.88,46.118,4,47.999z M60,47.999
			c-1.881-1.881-18-6-18-6l-2,22h24C64,63.999,63.76,51.759,60,47.999z"/>
	</g>
</g>
<g id="Badge">
	<g>
		<circle style="fill:#999999;" cx="10" cy="58" r="2"/>
	</g>
</g>
<g id="Collar">
	<g>
		<path style="fill:#404040;" d="M18,45.999l-4,4l8,14h2V38l-10,5.999L18,45.999z M50,43.999L40,38v25.999h2l8-14l-4-4L50,43.999z"
			/>
	</g>
</g>
<g id="Shirt_2_">
	<g>
		<polygon style="fill:#DBB599;" points="24,35.999 24,38 24,64 40,63.999 40,38 40,35.999 		"/>
	</g>
</g>
<g id="Shirt_3_">
	<g>
		<path style="fill-rule:evenodd;clip-rule:evenodd;fill:#9B7CAB;" d="M32,54c-3.078,0-5.876-0.974-8-2.562v12.561h16V51.438
			C37.876,53.026,35.078,54,32,54z"/>
	</g>
</g>
<g id="Head_3_">
	<g>
		<path style="fill:#F6CBAD;" d="M46,21.999c0-7.863-1.286-14-14-14c-12.712,0-13.999,6.474-14,13.995c0,0.002,0,0.003,0,0.005
			c0,6,2,10,4,14s6.081,8,10,8c3.918,0,8-4,10-8S46,27.999,46,21.999c0-0.003-0.001-0.007-0.001-0.01
			C45.999,21.992,46,21.995,46,21.999z"/>
	</g>
</g>
<g id="Beard">
	<g>
		<path style="fill-rule:evenodd;clip-rule:evenodd;fill:#997149;" d="M46,21.999c0-0.862-0.017-1.703-0.062-2.519
			c-0.3,5.186-2.11,8.861-3.938,12.519c-1.678,3.354-4.82,6.7-8.102,7.695L32,34l-1.898,5.694c-3.282-0.995-6.424-4.34-8.102-7.695
			c-1.823-3.646-3.627-7.309-3.937-12.468C18.018,20.335,18,21.157,18,21.994c0,0.002,0,0.003,0,0.005c0,6,2,10,4,14s6.081,8,10,8
			c3.918,0,8-4,10-8S46,27.999,46,21.999c0-0.003-0.001-0.007-0.001-0.01C45.999,21.992,46,21.995,46,21.999z"/>
	</g>
</g>
<g id="Mohawk">
	<g>
		<polygon style="fill-rule:evenodd;clip-rule:evenodd;fill:#9B7CAB;" points="32,0 28,8 28,9.999 32,18 36,9.999 36,8 		"/>
	</g>
</g>
<g>
</g>
<g>
</g>
<g>
</g>
<g>
</g>
<g>
</g>
<g>
</g>
<g>
</g>
<g>
</g>
<g>
</g>
<g>
</g>
<g>
</g>
<g>
</g>
<g>
</g>
<g>
</g>
<g>
</g>
</svg>
