<?xml version="1.0" encoding="UTF-8" standalone="no"?>
<svg width="64px" height="64px" viewBox="0 0 64 64" version="1.1" xmlns="http://www.w3.org/2000/svg" xmlns:xlink="http://www.w3.org/1999/xlink">
    <!-- Generator: Sketch 3.6.1 (26313) - http://www.bohemiancoding.com/sketch -->
    <title>Group</title>
    <desc>Created with Sketch.</desc>
    <defs></defs>
    <g id="Page-1" stroke="none" stroke-width="1" fill="none" fill-rule="evenodd">
        <g id="Group">
            <g id="Suit_2_" transform="translate(0.000000, 41.000000)" fill="#A35353">
                <path d="M4,6.999 C0.239,10.759 0,22.999 0,22.999 L26,22.999 L22,0.999 C22,0.999 5.88,5.118 4,6.999 L4,6.999 Z M60,6.999 C58.119,5.118 42,0.999 42,0.999 L40,22.999 L64,22.999 C64,22.999 63.76,10.759 60,6.999 L60,6.999 Z" id="Shape"></path>
            </g>
            <g id="Badge" transform="translate(8.000000, 56.000000)" fill="#999999">
                <circle id="Oval" cx="2" cy="2" r="2"></circle>
            </g>
            <g id="Collar" transform="translate(14.000000, 38.000000)" fill="#404040">
                <path d="M4,7.999 L0,11.999 L8,25.999 L10,25.999 L10,0 L0,5.999 L4,7.999 L4,7.999 Z M36,5.999 L26,0 L26,25.999 L28,25.999 L36,11.999 L32,7.999 L36,5.999 L36,5.999 Z" id="Shape"></path>
            </g>
            <g id="Shirt_2_" transform="translate(24.000000, 35.000000)" fill="#DBB599">
                <path d="M0,0.999 L0,3 L0,29 L16,28.999 L16,3 L16,0.999 L0,0.999 Z" id="Shape"></path>
            </g>
            <g id="Shirt_3_" transform="translate(24.000000, 51.000000)" fill="#1CA7D1">
                <path d="M8,3 C4.922,3 2.124,2.026 0,0.438 L0,12.999 L16,12.999 L16,0.438 C13.876,2.026 11.078,3 8,3 L8,3 Z" id="Shape"></path>
            </g>
            <g id="Head_3_" transform="translate(18.000000, 7.000000)" fill="#F6CBAD">
                <path d="M28,14.999 C28,7.136 26.714,0.999 14,0.999 C1.288,0.999 0.001,7.473 0,14.994 L0,14.999 C0,20.999 2,24.999 4,28.999 C6,32.999 10.081,36.999 14,36.999 C17.918,36.999 22,32.999 24,28.999 C26,24.999 28,20.999 28,14.999 C28,14.996 27.999,14.992 27.999,14.989 C27.999,14.992 28,14.995 28,14.999 L28,14.999 Z" id="Shape"></path>
            </g>
            <g id="Beard" transform="translate(18.000000, 19.000000)" fill="#333333">
                <path d="M28,2.999 C28,2.137 27.983,1.296 27.938,0.48 C27.638,5.666 25.828,9.341 24,12.999 C22.322,16.353 19.18,19.699 15.898,20.694 L14,15 L12.102,20.694 C8.82,19.699 5.678,16.354 4,12.999 C2.177,9.353 0.373,5.69 0.063,0.531 C0.018,1.335 0,2.157 0,2.994 L0,2.999 C0,8.999 2,12.999 4,16.999 C6,20.999 10.081,24.999 14,24.999 C17.918,24.999 22,20.999 24,16.999 C26,12.999 28,8.999 28,2.999 C28,2.996 27.999,2.992 27.999,2.989 C27.999,2.992 28,2.995 28,2.999 L28,2.999 Z" id="Shape"></path>
            </g>
            <g id="Mohawk" transform="translate(28.000000, 0.000000)" fill="#9B7CAB">
                <path d="M4,0 L0,8 L0,9.999 L4,18 L8,9.999 L8,8 L4,0 Z" id="Shape"></path>
            </g>
            <g id="Suit_1_" transform="translate(0.000000, 42.000000)" fill="#A35353">
                <path d="M0,22 L24,22.001 L24,0.001 C24,0.001 5.88,8.12 4,10.001 C0.24,13.761 0,22 0,22 L0,22 Z M60,10.001 C58.12,8.12 40,0.001 40,0.001 L40,22 L64,22 C64,22 63.76,13.761 60,10.001 L60,10.001 Z" id="Shape"></path>
            </g>
            <g id="Head_2_" transform="translate(18.000000, 4.000000)" fill="#F6CBAD">
                <path d="M28,14 C28,6.138 26.714,0 14,0 C1.288,0 0.001,6.474 0,13.995 L0,14 C0,20 2,24 4,28 C6,32 10.081,36 14,36 C17.918,36 22,32 24,28 C26,24 28,20 28,14 C28,13.997 27.999,13.993 27.999,13.99 C27.999,13.993 28,13.996 28,14 L28,14 Z" id="Shape"></path>
            </g>
            <g id="Gotee" transform="translate(26.000000, 32.000000)" fill="#333333">
                <path d="M10,-3.55271368e-15 L2,-3.55271368e-15 C0.896,-3.55271368e-15 0,0.896 0,2.001 L0.571,4.001 L11.428,4.001 L11.999,2.001 C12,0.896 11.104,-3.55271368e-15 10,-3.55271368e-15 L10,-3.55271368e-15 Z" id="Shape"></path>
            </g>
            <g id="Hair_2_" transform="translate(18.000000, 0.000000)" fill="#333333">
                <path d="M27.997,15.389 C27.997,15.363 28,15.335 28,15.309 C28,15.248 27.994,15.186 27.993,15.124 C27.888,7.544 26.243,0 14,0 C1.285,0 0,7.784 0,15.309 C0,14.754 0.064,14.212 0.176,13.687 C0.065,14.467 0,15.246 0,16 C0,16.898 0.08,17.843 0.205,18.804 C0.72,16.158 2.311,10 6,10 L7.091,10 C8.718,12.011 11.827,14 14,14 C19.892,14 18.547,12 22,12 C25.689,12 27.28,15.46 27.795,17.991 C27.902,17.201 27.966,16.428 27.984,15.678 C27.989,15.785 28,15.892 28,16 C28,15.797 27.999,15.593 27.997,15.389 L27.997,15.389 Z" id="Shape"></path>
            </g>
        </g>
    </g>
</svg>