<svg xmlns="http://www.w3.org/2000/svg" xmlns:xlink="http://www.w3.org/1999/xlink" width="257" height="257" viewBox="0 0 257 257">
  <defs>
    <circle id="logo-a" cx="128.5" cy="128.5" r="124.5"/>
    <filter id="logo-c" width="212.5%" height="212.5%" x="-56.2%" y="-56.2%" filterUnits="objectBoundingBox">
      <feGaussianBlur in="SourceGraphic" stdDeviation="6"/>
    </filter>
    <circle id="logo-e" cx="129" cy="129" r="32"/>
    <filter id="logo-d" width="121.9%" height="121.9%" x="-10.9%" y="-7.8%" filterUnits="objectBoundingBox">
      <feOffset dy="2" in="SourceAlpha" result="shadowOffsetOuter1"/>
      <feGaussianBlur in="shadowOffsetOuter1" result="shadowBlurOuter1" stdDeviation="2"/>
      <feColorMatrix in="shadowBlurOuter1" values="0 0 0 0 0   0 0 0 0 0   0 0 0 0 0  0 0 0 0.3 0"/>
    </filter>
  </defs>
  <g fill="none" fill-rule="evenodd">
    <circle cx="128" cy="128" r="125" fill="#FFF" transform="translate(.5 .5)"/>
    <mask id="logo-b" fill="#fff">
      <use xlink:href="#logo-a"/>
    </mask>
    <use fill="#F4CE3C" xlink:href="#logo-a"/>
    <path fill="#FFF" fill-opacity=".4" stroke="#FFF" stroke-linecap="round" stroke-linejoin="round" stroke-width="4" d="M70.4651443,94.6937409 L64.3299657,83.9571783 C62.9875594,81.6079674 63.3835606,78.6509273 65.2967839,76.737704 L76.737704,65.2967839 C78.6509273,63.3835606 81.6079674,62.9875594 83.9571783,64.3299657 L94.6937409,70.4651443 C100.00008,67.3484744 105.767732,64.9327412 111.869507,63.3451346 L115.121465,51.4212956 C115.833383,48.810928 118.204341,47 120.910048,47 L137.089952,47 C139.795659,47 142.166617,48.810928 142.878535,51.4212956 L146.130486,63.3451141 C152.232268,64.9327412 157.99992,67.3484744 163.306259,70.4651443 L174.042822,64.3299657 C176.392033,62.9875594 179.349073,63.3835606 181.262296,65.2967839 L192.703216,76.737704 C194.616439,78.6509273 195.012441,81.6079674 193.670034,83.9571783 L187.534856,94.6937409 C190.651526,100.000081 193.067259,105.767733 194.654866,111.869508 L206.578704,115.121465 C209.189072,115.833383 211,118.204341 211,120.910048 L211,137.089952 C211,139.795659 209.189072,142.166617 206.578704,142.878535 L194.654872,146.13049 C193.067259,152.232267 190.651526,157.999919 187.534856,163.306259 L193.670034,174.042822 C195.012441,176.392033 194.616439,179.349073 192.703216,181.262296 L181.262296,192.703216 C179.349073,194.616439 176.392033,195.012441 174.042822,193.670034 L163.306259,187.534856 C157.99992,190.651526 152.232268,193.067259 146.130493,194.654865 L142.878535,206.578704 C142.166617,209.189072 139.795659,211 137.089952,211 L120.910048,211 C118.204341,211 115.833383,209.189072 115.121465,206.578704 L111.869514,194.654886 C105.767732,193.067259 100.00008,190.651526 94.6937409,187.534856 L83.9571783,193.670034 C81.6079674,195.012441 78.6509273,194.616439 76.737704,192.703216 L65.2967839,181.262296 C63.3835606,179.349073 62.9875594,176.392033 64.3299657,174.042822 L70.4651443,163.306259 C67.3484742,157.999919 64.932741,152.232267 63.3451344,146.130492 L51.4212956,142.878535 C48.810928,142.166617 47,139.795659 47,137.089952 L47,120.910048 C47,118.204341 48.810928,115.833383 51.4212956,115.121465 L63.3451284,111.86951 C64.932741,105.767733 67.3484742,100.000081 70.4651443,94.6937409 Z" mask="url(#logo-b)"/>
    <circle cx="129" cy="131" r="16" fill="#000" filter="url(#logo-c)" mask="url(#logo-b)" opacity=".2"/>
    <g mask="url(#logo-b)">
      <use fill="#000" filter="url(#logo-d)" xlink:href="#logo-e"/>
      <use fill="#285885" xlink:href="#logo-e"/>
    </g>
    <g stroke-linecap="round" stroke-width="4" mask="url(#logo-b)">
      <g transform="translate(114 118)">
        <path stroke="#3E8EE2" d="M4.26368366,9.0401331 C4.09098454,9.83265818 4,10.6557038 4,11.5 C4,17.8512746 9.14872538,23 15.5,23 C17.9110839,23 20.148865,22.2580022 21.9974541,20.9898958 M26.713144,14.0638731 C26.9008671,13.239431 27,12.3812924 27,11.5 C27,5.14872538 21.8512746,0 15.5,0 C13.0897326,0 10.8526508,0.741495271 9.00442426,2.00881595"/>
        <polyline stroke="#FFF" stroke-linejoin="round" points="23 11 27 14.5 30.513 11"/>
        <polyline stroke="#FFF" stroke-linejoin="round" points=".498 8.502 4.498 12.002 8.011 8.502" transform="matrix(1 0 0 -1 0 20.505)"/>
      </g>
    </g>
    <path stroke="#FFF" stroke-linecap="round" stroke-width="4" d="M118.263684,127.040133 C118.090985,127.832658 118,128.655704 118,129.5 C118,135.851275 123.148725,141 129.5,141 C131.911084,141 134.148865,140.258002 135.997454,138.989896 M140.713144,132.063873 C140.900867,131.239431 141,130.381292 141,129.5 C141,123.148725 135.851275,118 129.5,118 C127.089733,118 124.852651,118.741495 123.004424,120.008816" mask="url(#logo-b)"/>
  </g>
</svg>
