<svg xmlns="http://www.w3.org/2000/svg" xmlns:xlink="http://www.w3.org/1999/xlink" width="257" height="257" viewBox="0 0 257 257">
  <defs>
    <circle id="logo-a" cx="125" cy="125" r="124.502"/>
  </defs>
  <g fill="none" fill-rule="evenodd">
    <circle cx="128" cy="128" r="125" fill="#FFF" transform="translate(.5 .5)"/>
    <g transform="translate(3.5 3.5)">
      <mask id="logo-b" fill="#fff">
        <use xlink:href="#logo-a"/>
      </mask>
      <use fill="#293253" xlink:href="#logo-a"/>
      <g mask="url(#logo-b)">
        <g transform="translate(41.335 32.869)">
          <path fill="#FFF" d="M160.853461,99.5707053 C157.968127,104.027617 148.951071,112.789886 149.277888,118.128283 C149.878611,127.976171 143.756225,140.474699 135.146912,144.866659 C130.478088,147.248215 131.710657,151.129841 129.391808,155.917696 C125.112052,164.757289 116.353337,160.022014 115.039841,169.486378 C112.81748,185.479917 96.4205677,183.172592 88.3621763,170.742108 C86.3203436,167.599691 81.5083416,167.599691 79.466509,170.742108 C71.4081175,183.172592 55.0112052,185.479917 52.7888446,169.486378 C51.4722361,160.022014 42.7166335,164.757289 38.4368775,155.917696 C36.1180279,151.129841 37.3505976,147.248215 32.6817729,144.866659 C24.0724602,140.474699 17.9500747,127.976171 18.5507968,118.128283 C18.874502,112.789886 9.85744522,104.027617 6.9752241,99.5707053 C1.65898904,91.3496986 1.65898904,79.955346 6.9752241,71.7343392 C9.85744522,67.2774277 11.2425299,58.5151583 10.9188247,53.1767618 C10.3181026,43.3288741 15.5253984,32.8252853 24.1378237,28.4333253 C28.8035359,26.0517695 32.5852839,27.038414 34.907246,22.2474661 C39.1838894,13.4109664 43.1928536,12.3531844 52.7888446,12.9686774 C57.9899153,13.3027138 60.3118775,4.97964035 68.3515936,3.7610261 C68.3920568,3.75484024 68.4200697,3.71153923 68.4574203,3.68988872 C71.2960657,1.77845825 76.6901145,4.04557562 80.2944472,7.19108499 C82.314492,8.95096192 85.2153884,8.92312555 87.3568227,7.31170925 C90.2265936,5.15593734 94.6028386,3.68988872 99.3712649,3.68988872 C99.4148406,3.68988872 99.4335159,3.7610261 99.4770916,3.7610261 C107.516808,3.7610261 109.83877,13.3027138 115.039841,12.9686774 C124.635832,12.3531844 128.644796,13.4109664 132.921439,22.2474661 C135.243401,27.038414 139.025149,26.0517695 143.690862,28.4333253 C152.303287,32.8252853 157.510583,43.3288741 156.909861,53.1767618 C156.586155,58.5151583 157.968127,67.2774277 160.853461,71.7343392 C166.169696,79.955346 166.169696,91.3496986 160.853461,99.5707053 L160.853461,99.5707053 L160.853461,99.5707053 Z" opacity=".1"/>
          <g transform="translate(15.438 24.402)">
            <path fill="#0096E6" fill-rule="nonzero" d="M24.9905613 127.320448C24.9905613 118.75997 31.9480761 111.833183 40.5465292 111.833183L40.5465292 105.638277C28.5115465 105.638277 18.7681742 115.338618 18.7681742 127.320448L24.9905613 127.320448 24.9905613 127.320448zM34.324142 15.8121371C34.324142 7.25299217 27.3652879.324871606 18.7681742.324871606L18.7681742 6.51977779C23.9287584 6.51977779 28.1017549 10.6743444 28.1017549 15.8121371L34.324142 15.8121371 34.324142 15.8121371zM6.32339992 93.2484643C6.32339992 82.9750944 14.6716182 74.6637458 24.9905613 74.6637458 38.746034 74.6637458 49.8801099 63.5788432 49.8801099 49.884121L43.6577228 49.884121C43.6577228 60.1574909 35.3095045 68.4688396 24.9905613 68.4688396 11.2350887 68.4688396.101012778 79.5537422.101012778 93.2484643L6.32339992 93.2484643 6.32339992 93.2484643zM49.1797591 74.5983685C40.9489396 82.7928369 40.9489396 96.0539192 49.1802471 104.245239L53.5791633 99.8638077C47.7789878 94.0918092 47.7789878 84.7538737 53.5796513 78.9788287L49.1797591 74.5983685 49.1797591 74.5983685zM54.6770628 16.1313281C43.2149298 14.1288624 32.3095572 21.7418275 30.2984117 33.1521848L36.4271548 34.2228929C37.8442619 26.1828487 45.5238308 20.8217948 53.601605 22.2330039L54.6770628 16.1313281 54.6770628 16.1313281z"/>
            <path fill="#0096E6" fill-rule="nonzero" d="M12.0444458,51.243584 C23.505329,53.2494652 34.4120056,45.6352541 36.4269885,34.2238354 L30.2985779,33.1512423 C28.8785202,41.1934313 21.1976004,46.5556647 13.121797,45.1422393 L12.0444458,51.243584 L12.0444458,51.243584 Z"/>
          </g>
          <path fill="#D8D9E7" d="M25.0334469,170.491316 C25.0334469,172.197928 23.6428611,173.579913 21.9294607,173.579913 C20.2160604,173.579913 18.8254746,172.197928 18.8254746,170.491316 C18.8254746,168.781612 20.2160604,167.399627 21.9294607,167.399627 C23.6428611,167.399627 25.0334469,168.781612 25.0334469,170.491316 Z M12.6175022,170.491316 C12.6175022,172.197928 11.2269164,173.579913 9.51351606,173.579913 C7.80011569,173.579913 6.40952989,172.197928 6.40952989,170.491316 C6.40952989,168.781612 7.80011569,167.399627 9.51351606,167.399627 C11.2269164,167.399627 12.6175022,168.781612 12.6175022,170.491316 Z M31.2414193,164.304847 C31.2414193,166.014551 29.8508335,167.399627 28.1374331,167.399627 C26.4240327,167.399627 25.0334469,166.014551 25.0334469,164.304847 C25.0334469,162.598234 26.4240327,161.216249 28.1374331,161.216249 C29.8508335,161.216249 31.2414193,162.598234 31.2414193,164.304847 Z M6.40952989,164.304847 C6.40952989,166.014551 5.01894408,167.399627 3.30554372,167.399627 C1.59214335,167.399627 0.201557544,166.014551 0.201557544,164.304847 C0.201557544,162.598234 1.59214335,161.216249 3.30554372,161.216249 C5.01894408,161.216249 6.40952989,162.598234 6.40952989,164.304847 Z M25.0334469,158.12456 C25.0334469,159.831173 23.6428611,161.216249 21.9294607,161.216249 C20.2160604,161.216249 18.8254746,159.831173 18.8254746,158.12456 C18.8254746,156.414856 20.2160604,155.02978 21.9294607,155.02978 C23.6428611,155.02978 25.0334469,156.414856 25.0334469,158.12456 Z M12.6175022,158.12456 C12.6175022,159.831173 11.2269164,161.216249 9.51351606,161.216249 C7.80011569,161.216249 6.40952989,159.831173 6.40952989,158.12456 C6.40952989,156.414856 7.80011569,155.02978 9.51351606,155.02978 C11.2269164,155.02978 12.6175022,156.414856 12.6175022,158.12456 Z M18.8254746,151.941183 C18.8254746,153.647795 17.4348888,155.02978 15.7214884,155.02978 C14.008088,155.02978 12.6175022,153.647795 12.6175022,151.941183 C12.6175022,150.231479 14.008088,148.849494 15.7214884,148.849494 C17.4348888,148.849494 18.8254746,150.231479 18.8254746,151.941183 Z M31.2414193,151.941183 C31.2414193,153.647795 29.8508335,155.02978 28.1374331,155.02978 C26.4240327,155.02978 25.0334469,153.647795 25.0334469,151.941183 C25.0334469,150.231479 26.4240327,148.849494 28.1374331,148.849494 C29.8508335,148.849494 31.2414193,150.231479 31.2414193,151.941183 Z M6.40952989,151.941183 C6.40952989,153.647795 5.01894408,155.02978 3.30554372,155.02978 C1.59214335,155.02978 0.201557544,153.647795 0.201557544,151.941183 C0.201557544,150.231479 1.59214335,148.849494 3.30554372,148.849494 C5.01894408,148.849494 6.40952989,150.231479 6.40952989,151.941183 Z M31.2414193,139.574427 C31.2414193,141.281039 29.8508335,142.666116 28.1374331,142.666116 C26.4240327,142.666116 25.0334469,141.281039 25.0334469,139.574427 C25.0334469,137.864723 26.4240327,136.479646 28.1374331,136.479646 C29.8508335,136.479646 31.2414193,137.864723 31.2414193,139.574427 Z M6.40952989,139.574427 C6.40952989,141.281039 5.01894408,142.666116 3.30554372,142.666116 C1.59214335,142.666116 0.201557544,141.281039 0.201557544,139.574427 C0.201557544,137.864723 1.59214335,136.479646 3.30554372,136.479646 C5.01894408,136.479646 6.40952989,137.864723 6.40952989,139.574427 Z M12.6175022,133.391049 C12.6175022,135.097661 11.2269164,136.479646 9.51351606,136.479646 C7.80011569,136.479646 6.40952989,135.097661 6.40952989,133.391049 C6.40952989,131.681345 7.80011569,130.29936 9.51351606,130.29936 C11.2269164,130.29936 12.6175022,131.681345 12.6175022,133.391049 Z M18.8254746,127.204579 C18.8254746,128.914283 17.4348888,130.29936 15.7214884,130.29936 C14.008088,130.29936 12.6175022,128.914283 12.6175022,127.204579 C12.6175022,125.497967 14.008088,124.115982 15.7214884,124.115982 C17.4348888,124.115982 18.8254746,125.497967 18.8254746,127.204579 Z M31.2414193,127.204579 C31.2414193,128.914283 29.8508335,130.29936 28.1374331,130.29936 C26.4240327,130.29936 25.0334469,128.914283 25.0334469,127.204579 C25.0334469,125.497967 26.4240327,124.115982 28.1374331,124.115982 C29.8508335,124.115982 31.2414193,125.497967 31.2414193,127.204579 Z M6.40952989,127.204579 C6.40952989,128.914283 5.01894408,130.29936 3.30554372,130.29936 C1.59214335,130.29936 0.201557544,128.914283 0.201557544,127.204579 C0.201557544,125.497967 1.59214335,124.115982 3.30554372,124.115982 C5.01894408,124.115982 6.40952989,125.497967 6.40952989,127.204579 Z M25.0334469,121.024293 C25.0334469,122.730906 23.6428611,124.115982 21.9294607,124.115982 C20.2160604,124.115982 18.8254746,122.730906 18.8254746,121.024293 C18.8254746,119.314589 20.2160604,117.929513 21.9294607,117.929513 C23.6428611,117.929513 25.0334469,119.314589 25.0334469,121.024293 Z M6.40952989,114.840915 C6.40952989,116.547528 5.01894408,117.929513 3.30554372,117.929513 C1.59214335,117.929513 0.201557544,116.547528 0.201557544,114.840915 C0.201557544,113.131211 1.59214335,111.749227 3.30554372,111.749227 C5.01894408,111.749227 6.40952989,113.131211 6.40952989,114.840915 Z M25.0334469,108.654446 C25.0334469,110.36415 23.6428611,111.749227 21.9294607,111.749227 C20.2160604,111.749227 18.8254746,110.36415 18.8254746,108.654446 C18.8254746,106.947834 20.2160604,105.565849 21.9294607,105.565849 C23.6428611,105.565849 25.0334469,106.947834 25.0334469,108.654446 Z M12.6175022,108.654446 C12.6175022,110.36415 11.2269164,111.749227 9.51351606,111.749227 C7.80011569,111.749227 6.40952989,110.36415 6.40952989,108.654446 C6.40952989,106.947834 7.80011569,105.565849 9.51351606,105.565849 C11.2269164,105.565849 12.6175022,106.947834 12.6175022,108.654446 Z M6.40952989,102.47416 C6.40952989,104.180772 5.01894408,105.565849 3.30554372,105.565849 C1.59214335,105.565849 0.201557544,104.180772 0.201557544,102.47416 C0.201557544,100.764456 1.59214335,99.3793792 3.30554372,99.3793792 C5.01894408,99.3793792 6.40952989,100.764456 6.40952989,102.47416 Z M12.6175022,96.2907819 C12.6175022,97.9973942 11.2269164,99.3793792 9.51351606,99.3793792 C7.80011569,99.3793792 6.40952989,97.9973942 6.40952989,96.2907819 C6.40952989,94.581078 7.80011569,93.199093 9.51351606,93.199093 C11.2269164,93.199093 12.6175022,94.581078 12.6175022,96.2907819 Z M18.8254746,90.1043124 C18.8254746,91.8140164 17.4348888,93.199093 15.7214884,93.199093 C14.008088,93.199093 12.6175022,91.8140164 12.6175022,90.1043124 C12.6175022,88.3977001 14.008088,87.0157152 15.7214884,87.0157152 C17.4348888,87.0157152 18.8254746,88.3977001 18.8254746,90.1043124 Z M31.2414193,90.1043124 C31.2414193,91.8140164 29.8508335,93.199093 28.1374331,93.199093 C26.4240327,93.199093 25.0334469,91.8140164 25.0334469,90.1043124 C25.0334469,88.3977001 26.4240327,87.0157152 28.1374331,87.0157152 C29.8508335,87.0157152 31.2414193,88.3977001 31.2414193,90.1043124 Z M6.40952989,90.1043124 C6.40952989,91.8140164 5.01894408,93.199093 3.30554372,93.199093 C1.59214335,93.199093 0.201557544,91.8140164 0.201557544,90.1043124 C0.201557544,88.3977001 1.59214335,87.0157152 3.30554372,87.0157152 C5.01894408,87.0157152 6.40952989,88.3977001 6.40952989,90.1043124 Z M25.0334469,83.9240262 C25.0334469,85.6306385 23.6428611,87.0157152 21.9294607,87.0157152 C20.2160604,87.0157152 18.8254746,85.6306385 18.8254746,83.9240262 C18.8254746,82.2143223 20.2160604,80.8292456 21.9294607,80.8292456 C23.6428611,80.8292456 25.0334469,82.2143223 25.0334469,83.9240262 Z M18.8254746,77.7406484 C18.8254746,79.4472607 17.4348888,80.8292456 15.7214884,80.8292456 C14.008088,80.8292456 12.6175022,79.4472607 12.6175022,77.7406484 C12.6175022,76.0309444 14.008088,74.6489595 15.7214884,74.6489595 C17.4348888,74.6489595 18.8254746,76.0309444 18.8254746,77.7406484 Z M31.2414193,77.7406484 C31.2414193,79.4472607 29.8508335,80.8292456 28.1374331,80.8292456 C26.4240327,80.8292456 25.0334469,79.4472607 25.0334469,77.7406484 C25.0334469,76.0309444 26.4240327,74.6489595 28.1374331,74.6489595 C29.8508335,74.6489595 31.2414193,76.0309444 31.2414193,77.7406484 Z M6.40952989,77.7406484 C6.40952989,79.4472607 5.01894408,80.8292456 3.30554372,80.8292456 C1.59214335,80.8292456 0.201557544,79.4472607 0.201557544,77.7406484 C0.201557544,76.0309444 1.59214335,74.6489595 3.30554372,74.6489595 C5.01894408,74.6489595 6.40952989,76.0309444 6.40952989,77.7406484 Z M12.6175022,71.5541788 C12.6175022,73.2638828 11.2269164,74.6489595 9.51351606,74.6489595 C7.80011569,74.6489595 6.40952989,73.2638828 6.40952989,71.5541788 C6.40952989,69.8475666 7.80011569,68.4655816 9.51351606,68.4655816 C11.2269164,68.4655816 12.6175022,69.8475666 12.6175022,71.5541788 Z M18.8254746,65.3738927 C18.8254746,67.080505 17.4348888,68.4655816 15.7214884,68.4655816 C14.008088,68.4655816 12.6175022,67.080505 12.6175022,65.3738927 C12.6175022,63.6641887 14.008088,62.2791121 15.7214884,62.2791121 C17.4348888,62.2791121 18.8254746,63.6641887 18.8254746,65.3738927 Z M25.0334469,59.1905148 C25.0334469,60.8971271 23.6428611,62.2791121 21.9294607,62.2791121 C20.2160604,62.2791121 18.8254746,60.8971271 18.8254746,59.1905148 C18.8254746,57.4808109 20.2160604,56.0988259 21.9294607,56.0988259 C23.6428611,56.0988259 25.0334469,57.4808109 25.0334469,59.1905148 Z M12.6175022,59.1905148 C12.6175022,60.8971271 11.2269164,62.2791121 9.51351606,62.2791121 C7.80011569,62.2791121 6.40952989,60.8971271 6.40952989,59.1905148 C6.40952989,57.4808109 7.80011569,56.0988259 9.51351606,56.0988259 C11.2269164,56.0988259 12.6175022,57.4808109 12.6175022,59.1905148 Z M6.40952989,53.0040453 C6.40952989,54.7137493 5.01894408,56.0988259 3.30554372,56.0988259 C1.59214335,56.0988259 0.201557544,54.7137493 0.201557544,53.0040453 C0.201557544,51.297433 1.59214335,49.9154481 3.30554372,49.9154481 C5.01894408,49.9154481 6.40952989,51.297433 6.40952989,53.0040453 Z M25.0334469,46.8237591 C25.0334469,48.5303714 23.6428611,49.9154481 21.9294607,49.9154481 C20.2160604,49.9154481 18.8254746,48.5303714 18.8254746,46.8237591 C18.8254746,45.1140552 20.2160604,43.7289785 21.9294607,43.7289785 C23.6428611,43.7289785 25.0334469,45.1140552 25.0334469,46.8237591 Z M12.6175022,46.8237591 C12.6175022,48.5303714 11.2269164,49.9154481 9.51351606,49.9154481 C7.80011569,49.9154481 6.40952989,48.5303714 6.40952989,46.8237591 C6.40952989,45.1140552 7.80011569,43.7289785 9.51351606,43.7289785 C11.2269164,43.7289785 12.6175022,45.1140552 12.6175022,46.8237591 Z M18.8254746,40.6403813 C18.8254746,42.3469936 17.4348888,43.7289785 15.7214884,43.7289785 C14.008088,43.7289785 12.6175022,42.3469936 12.6175022,40.6403813 C12.6175022,38.9306773 14.008088,37.5486924 15.7214884,37.5486924 C17.4348888,37.5486924 18.8254746,38.9306773 18.8254746,40.6403813 Z M31.2414193,40.6403813 C31.2414193,42.3469936 29.8508335,43.7289785 28.1374331,43.7289785 C26.4240327,43.7289785 25.0334469,42.3469936 25.0334469,40.6403813 C25.0334469,38.9306773 26.4240327,37.5486924 28.1374331,37.5486924 C29.8508335,37.5486924 31.2414193,38.9306773 31.2414193,40.6403813 Z M25.0334469,34.4539118 C25.0334469,36.1636157 23.6428611,37.5486924 21.9294607,37.5486924 C20.2160604,37.5486924 18.8254746,36.1636157 18.8254746,34.4539118 C18.8254746,32.7472995 20.2160604,31.3653145 21.9294607,31.3653145 C23.6428611,31.3653145 25.0334469,32.7472995 25.0334469,34.4539118 Z M12.6175022,34.4539118 C12.6175022,36.1636157 11.2269164,37.5486924 9.51351606,37.5486924 C7.80011569,37.5486924 6.40952989,36.1636157 6.40952989,34.4539118 C6.40952989,32.7472995 7.80011569,31.3653145 9.51351606,31.3653145 C11.2269164,31.3653145 12.6175022,32.7472995 12.6175022,34.4539118 Z M6.40952989,28.2736256 C6.40952989,29.9802379 5.01894408,31.3653145 3.30554372,31.3653145 C1.59214335,31.3653145 0.201557544,29.9802379 0.201557544,28.2736256 C0.201557544,26.5639216 1.59214335,25.178845 3.30554372,25.178845 C5.01894408,25.178845 6.40952989,26.5639216 6.40952989,28.2736256 Z M25.0334469,22.0902478 C25.0334469,23.79686 23.6428611,25.178845 21.9294607,25.178845 C20.2160604,25.178845 18.8254746,23.79686 18.8254746,22.0902478 C18.8254746,20.3805438 20.2160604,18.9985588 21.9294607,18.9985588 C23.6428611,18.9985588 25.0334469,20.3805438 25.0334469,22.0902478 Z M31.2414193,15.9037782 C31.2414193,17.6134822 29.8508335,18.9985588 28.1374331,18.9985588 C26.4240327,18.9985588 25.0334469,17.6134822 25.0334469,15.9037782 C25.0334469,14.1971659 26.4240327,12.815181 28.1374331,12.815181 C29.8508335,12.815181 31.2414193,14.1971659 31.2414193,15.9037782 Z M6.40952989,15.9037782 C6.40952989,17.6134822 5.01894408,18.9985588 3.30554372,18.9985588 C1.59214335,18.9985588 0.201557544,17.6134822 0.201557544,15.9037782 C0.201557544,14.1971659 1.59214335,12.815181 3.30554372,12.815181 C5.01894408,12.815181 6.40952989,14.1971659 6.40952989,15.9037782 Z M25.0334469,9.72349206 C25.0334469,11.4301043 23.6428611,12.815181 21.9294607,12.815181 C20.2160604,12.815181 18.8254746,11.4301043 18.8254746,9.72349206 C18.8254746,8.01378808 20.2160604,6.62871145 21.9294607,6.62871145 C23.6428611,6.62871145 25.0334469,8.01378808 25.0334469,9.72349206 Z M12.6175022,9.72349206 C12.6175022,11.4301043 11.2269164,12.815181 9.51351606,12.815181 C7.80011569,12.815181 6.40952989,11.4301043 6.40952989,9.72349206 C6.40952989,8.01378808 7.80011569,6.62871145 9.51351606,6.62871145 C11.2269164,6.62871145 12.6175022,8.01378808 12.6175022,9.72349206 Z M18.8254746,3.54011421 C18.8254746,5.2467265 17.4348888,6.62871145 15.7214884,6.62871145 C14.008088,6.62871145 12.6175022,5.2467265 12.6175022,3.54011421 C12.6175022,1.83041024 14.008088,0.448425287 15.7214884,0.448425287 C17.4348888,0.448425287 18.8254746,1.83041024 18.8254746,3.54011421 Z M6.40952989,3.54011421 C6.40952989,5.2467265 5.01894408,6.62871145 3.30554372,6.62871145 C1.59214335,6.62871145 0.201557544,5.2467265 0.201557544,3.54011421 C0.201557544,1.83041024 1.59214335,0.448425287 3.30554372,0.448425287 C5.01894408,0.448425287 6.40952989,1.83041024 6.40952989,3.54011421 Z M37.4493916,158.12456 C37.4493916,159.831173 36.0588058,161.216249 34.3454054,161.216249 C32.6320051,161.216249 31.2414193,159.831173 31.2414193,158.12456 C31.2414193,156.414856 32.6320051,155.02978 34.3454054,155.02978 C36.0588058,155.02978 37.4493916,156.414856 37.4493916,158.12456 Z M43.6573639,151.941183 C43.6573639,153.647795 42.2667781,155.02978 40.5533778,155.02978 C38.8399774,155.02978 37.4493916,153.647795 37.4493916,151.941183 C37.4493916,150.231479 38.8399774,148.849494 40.5533778,148.849494 C42.2667781,148.849494 43.6573639,150.231479 43.6573639,151.941183 Z M37.4493916,145.754713 C37.4493916,147.464417 36.0588058,148.849494 34.3454054,148.849494 C32.6320051,148.849494 31.2414193,147.464417 31.2414193,145.754713 C31.2414193,144.048101 32.6320051,142.666116 34.3454054,142.666116 C36.0588058,142.666116 37.4493916,144.048101 37.4493916,145.754713 Z M43.6573639,139.574427 C43.6573639,141.281039 42.2667781,142.666116 40.5533778,142.666116 C38.8399774,142.666116 37.4493916,141.281039 37.4493916,139.574427 C37.4493916,137.864723 38.8399774,136.479646 40.5533778,136.479646 C42.2667781,136.479646 43.6573639,137.864723 43.6573639,139.574427 Z M49.8653363,133.391049 C49.8653363,135.097661 48.4747505,136.479646 46.7613501,136.479646 C45.0479498,136.479646 43.6573639,135.097661 43.6573639,133.391049 C43.6573639,131.681345 45.0479498,130.29936 46.7613501,130.29936 C48.4747505,130.29936 49.8653363,131.681345 49.8653363,133.391049 Z M56.0733086,127.204579 C56.0733086,128.914283 54.6827228,130.29936 52.9693225,130.29936 C51.2559221,130.29936 49.8653363,128.914283 49.8653363,127.204579 C49.8653363,125.497967 51.2559221,124.115982 52.9693225,124.115982 C54.6827228,124.115982 56.0733086,125.497967 56.0733086,127.204579 Z M43.6573639,127.204579 C43.6573639,128.914283 42.2667781,130.29936 40.5533778,130.29936 C38.8399774,130.29936 37.4493916,128.914283 37.4493916,127.204579 C37.4493916,125.497967 38.8399774,124.115982 40.5533778,124.115982 C42.2667781,124.115982 43.6573639,125.497967 43.6573639,127.204579 Z M49.8653363,121.024293 C49.8653363,122.730906 48.4747505,124.115982 46.7613501,124.115982 C45.0479498,124.115982 43.6573639,122.730906 43.6573639,121.024293 C43.6573639,119.314589 45.0479498,117.929513 46.7613501,117.929513 C48.4747505,117.929513 49.8653363,119.314589 49.8653363,121.024293 Z M62.281281,121.024293 C62.281281,122.730906 60.8906952,124.115982 59.1772948,124.115982 C57.4638944,124.115982 56.0733086,122.730906 56.0733086,121.024293 C56.0733086,119.314589 57.4638944,117.929513 59.1772948,117.929513 C60.8906952,117.929513 62.281281,119.314589 62.281281,121.024293 Z M56.0733086,114.840915 C56.0733086,116.547528 54.6827228,117.929513 52.9693225,117.929513 C51.2559221,117.929513 49.8653363,116.547528 49.8653363,114.840915 C49.8653363,113.131211 51.2559221,111.749227 52.9693225,111.749227 C54.6827228,111.749227 56.0733086,113.131211 56.0733086,114.840915 Z M49.8653363,108.654446 C49.8653363,110.36415 48.4747505,111.749227 46.7613501,111.749227 C45.0479498,111.749227 43.6573639,110.36415 43.6573639,108.654446 C43.6573639,106.947834 45.0479498,105.565849 46.7613501,105.565849 C48.4747505,105.565849 49.8653363,106.947834 49.8653363,108.654446 Z M62.281281,108.654446 C62.281281,110.36415 60.8906952,111.749227 59.1772948,111.749227 C57.4638944,111.749227 56.0733086,110.36415 56.0733086,108.654446 C56.0733086,106.947834 57.4638944,105.565849 59.1772948,105.565849 C60.8906952,105.565849 62.281281,106.947834 62.281281,108.654446 Z M37.4493916,108.654446 C37.4493916,110.36415 36.0588058,111.749227 34.3454054,111.749227 C32.6320051,111.749227 31.2414193,110.36415 31.2414193,108.654446 C31.2414193,106.947834 32.6320051,105.565849 34.3454054,105.565849 C36.0588058,105.565849 37.4493916,106.947834 37.4493916,108.654446 Z M49.8653363,96.2907819 C49.8653363,97.9973942 48.4747505,99.3793792 46.7613501,99.3793792 C45.0479498,99.3793792 43.6573639,97.9973942 43.6573639,96.2907819 C43.6573639,94.581078 45.0479498,93.199093 46.7613501,93.199093 C48.4747505,93.199093 49.8653363,94.581078 49.8653363,96.2907819 Z M62.281281,96.2907819 C62.281281,97.9973942 60.8906952,99.3793792 59.1772948,99.3793792 C57.4638944,99.3793792 56.0733086,97.9973942 56.0733086,96.2907819 C56.0733086,94.581078 57.4638944,93.199093 59.1772948,93.199093 C60.8906952,93.199093 62.281281,94.581078 62.281281,96.2907819 Z M37.4493916,96.2907819 C37.4493916,97.9973942 36.0588058,99.3793792 34.3454054,99.3793792 C32.6320051,99.3793792 31.2414193,97.9973942 31.2414193,96.2907819 C31.2414193,94.581078 32.6320051,93.199093 34.3454054,93.199093 C36.0588058,93.199093 37.4493916,94.581078 37.4493916,96.2907819 Z M49.8653363,83.9240262 C49.8653363,85.6306385 48.4747505,87.0157152 46.7613501,87.0157152 C45.0479498,87.0157152 43.6573639,85.6306385 43.6573639,83.9240262 C43.6573639,82.2143223 45.0479498,80.8292456 46.7613501,80.8292456 C48.4747505,80.8292456 49.8653363,82.2143223 49.8653363,83.9240262 Z M62.281281,83.9240262 C62.281281,85.6306385 60.8906952,87.0157152 59.1772948,87.0157152 C57.4638944,87.0157152 56.0733086,85.6306385 56.0733086,83.9240262 C56.0733086,82.2143223 57.4638944,80.8292456 59.1772948,80.8292456 C60.8906952,80.8292456 62.281281,82.2143223 62.281281,83.9240262 Z M43.6573639,77.7406484 C43.6573639,79.4472607 42.2667781,80.8292456 40.5533778,80.8292456 C38.8399774,80.8292456 37.4493916,79.4472607 37.4493916,77.7406484 C37.4493916,76.0309444 38.8399774,74.6489595 40.5533778,74.6489595 C42.2667781,74.6489595 43.6573639,76.0309444 43.6573639,77.7406484 Z M49.8653363,71.5541788 C49.8653363,73.2638828 48.4747505,74.6489595 46.7613501,74.6489595 C45.0479498,74.6489595 43.6573639,73.2638828 43.6573639,71.5541788 C43.6573639,69.8475666 45.0479498,68.4655816 46.7613501,68.4655816 C48.4747505,68.4655816 49.8653363,69.8475666 49.8653363,71.5541788 Z M56.0733086,65.3738927 C56.0733086,67.080505 54.6827228,68.4655816 52.9693225,68.4655816 C51.2559221,68.4655816 49.8653363,67.080505 49.8653363,65.3738927 C49.8653363,63.6641887 51.2559221,62.2791121 52.9693225,62.2791121 C54.6827228,62.2791121 56.0733086,63.6641887 56.0733086,65.3738927 Z M43.6573639,65.3738927 C43.6573639,67.080505 42.2667781,68.4655816 40.5533778,68.4655816 C38.8399774,68.4655816 37.4493916,67.080505 37.4493916,65.3738927 C37.4493916,63.6641887 38.8399774,62.2791121 40.5533778,62.2791121 C42.2667781,62.2791121 43.6573639,63.6641887 43.6573639,65.3738927 Z M49.8653363,59.1905148 C49.8653363,60.8971271 48.4747505,62.2791121 46.7613501,62.2791121 C45.0479498,62.2791121 43.6573639,60.8971271 43.6573639,59.1905148 C43.6573639,57.4808109 45.0479498,56.0988259 46.7613501,56.0988259 C48.4747505,56.0988259 49.8653363,57.4808109 49.8653363,59.1905148 Z M37.4493916,59.1905148 C37.4493916,60.8971271 36.0588058,62.2791121 34.3454054,62.2791121 C32.6320051,62.2791121 31.2414193,60.8971271 31.2414193,59.1905148 C31.2414193,57.4808109 32.6320051,56.0988259 34.3454054,56.0988259 C36.0588058,56.0988259 37.4493916,57.4808109 37.4493916,59.1905148 Z M56.0733086,53.0040453 C56.0733086,54.7137493 54.6827228,56.0988259 52.9693225,56.0988259 C51.2559221,56.0988259 49.8653363,54.7137493 49.8653363,53.0040453 C49.8653363,51.297433 51.2559221,49.9154481 52.9693225,49.9154481 C54.6827228,49.9154481 56.0733086,51.297433 56.0733086,53.0040453 Z M62.281281,46.8237591 C62.281281,48.5303714 60.8906952,49.9154481 59.1772948,49.9154481 C57.4638944,49.9154481 56.0733086,48.5303714 56.0733086,46.8237591 C56.0733086,45.1140552 57.4638944,43.7289785 59.1772948,43.7289785 C60.8906952,43.7289785 62.281281,45.1140552 62.281281,46.8237591 Z M56.0733086,40.6403813 C56.0733086,42.3469936 54.6827228,43.7289785 52.9693225,43.7289785 C51.2559221,43.7289785 49.8653363,42.3469936 49.8653363,40.6403813 C49.8653363,38.9306773 51.2559221,37.5486924 52.9693225,37.5486924 C54.6827228,37.5486924 56.0733086,38.9306773 56.0733086,40.6403813 Z M43.6573639,40.6403813 C43.6573639,42.3469936 42.2667781,43.7289785 40.5533778,43.7289785 C38.8399774,43.7289785 37.4493916,42.3469936 37.4493916,40.6403813 C37.4493916,38.9306773 38.8399774,37.5486924 40.5533778,37.5486924 C42.2667781,37.5486924 43.6573639,38.9306773 43.6573639,40.6403813 Z M62.281281,34.4539118 C62.281281,36.1636157 60.8906952,37.5486924 59.1772948,37.5486924 C57.4638944,37.5486924 56.0733086,36.1636157 56.0733086,34.4539118 C56.0733086,32.7472995 57.4638944,31.3653145 59.1772948,31.3653145 C60.8906952,31.3653145 62.281281,32.7472995 62.281281,34.4539118 Z M37.4493916,34.4539118 C37.4493916,36.1636157 36.0588058,37.5486924 34.3454054,37.5486924 C32.6320051,37.5486924 31.2414193,36.1636157 31.2414193,34.4539118 C31.2414193,32.7472995 32.6320051,31.3653145 34.3454054,31.3653145 C36.0588058,31.3653145 37.4493916,32.7472995 37.4493916,34.4539118 Z M56.0733086,28.2736256 C56.0733086,29.9802379 54.6827228,31.3653145 52.9693225,31.3653145 C51.2559221,31.3653145 49.8653363,29.9802379 49.8653363,28.2736256 C49.8653363,26.5639216 51.2559221,25.178845 52.9693225,25.178845 C54.6827228,25.178845 56.0733086,26.5639216 56.0733086,28.2736256 Z M43.6573639,28.2736256 C43.6573639,29.9802379 42.2667781,31.3653145 40.5533778,31.3653145 C38.8399774,31.3653145 37.4493916,29.9802379 37.4493916,28.2736256 C37.4493916,26.5639216 38.8399774,25.178845 40.5533778,25.178845 C42.2667781,25.178845 43.6573639,26.5639216 43.6573639,28.2736256 Z M49.8653363,22.0902478 C49.8653363,23.79686 48.4747505,25.178845 46.7613501,25.178845 C45.0479498,25.178845 43.6573639,23.79686 43.6573639,22.0902478 C43.6573639,20.3805438 45.0479498,18.9985588 46.7613501,18.9985588 C48.4747505,18.9985588 49.8653363,20.3805438 49.8653363,22.0902478 Z M43.6573639,15.9037782 C43.6573639,17.6134822 42.2667781,18.9985588 40.5533778,18.9985588 C38.8399774,18.9985588 37.4493916,17.6134822 37.4493916,15.9037782 C37.4493916,14.1971659 38.8399774,12.815181 40.5533778,12.815181 C42.2667781,12.815181 43.6573639,14.1971659 43.6573639,15.9037782 Z M37.4493916,9.72349206 C37.4493916,11.4301043 36.0588058,12.815181 34.3454054,12.815181 C32.6320051,12.815181 31.2414193,11.4301043 31.2414193,9.72349206 C31.2414193,8.01378808 32.6320051,6.62871145 34.3454054,6.62871145 C36.0588058,6.62871145 37.4493916,8.01378808 37.4493916,9.72349206 Z M68.4892533,102.47416 C68.4892533,104.180772 67.0986675,105.565849 65.3852671,105.565849 C63.6718668,105.565849 62.281281,104.180772 62.281281,102.47416 C62.281281,100.764456 63.6718668,99.3793792 65.3852671,99.3793792 C67.0986675,99.3793792 68.4892533,100.764456 68.4892533,102.47416 Z M74.6972257,96.2907819 C74.6972257,97.9973942 73.3066399,99.3793792 71.5932395,99.3793792 C69.8798391,99.3793792 68.4892533,97.9973942 68.4892533,96.2907819 C68.4892533,94.581078 69.8798391,93.199093 71.5932395,93.199093 C73.3066399,93.199093 74.6972257,94.581078 74.6972257,96.2907819 Z M74.6972257,83.9240262 C74.6972257,85.6306385 73.3066399,87.0157152 71.5932395,87.0157152 C69.8798391,87.0157152 68.4892533,85.6306385 68.4892533,83.9240262 C68.4892533,82.2143223 69.8798391,80.8292456 71.5932395,80.8292456 C73.3066399,80.8292456 74.6972257,82.2143223 74.6972257,83.9240262 Z M68.4892533,77.7406484 C68.4892533,79.4472607 67.0986675,80.8292456 65.3852671,80.8292456 C63.6718668,80.8292456 62.281281,79.4472607 62.281281,77.7406484 C62.281281,76.0309444 63.6718668,74.6489595 65.3852671,74.6489595 C67.0986675,74.6489595 68.4892533,76.0309444 68.4892533,77.7406484 Z M74.6972257,71.5541788 C74.6972257,73.2638828 73.3066399,74.6489595 71.5932395,74.6489595 C69.8798391,74.6489595 68.4892533,73.2638828 68.4892533,71.5541788 C68.4892533,69.8475666 69.8798391,68.4655816 71.5932395,68.4655816 C73.3066399,68.4655816 74.6972257,69.8475666 74.6972257,71.5541788 Z M68.4892533,65.3738927 C68.4892533,67.080505 67.0986675,68.4655816 65.3852671,68.4655816 C63.6718668,68.4655816 62.281281,67.080505 62.281281,65.3738927 C62.281281,63.6641887 63.6718668,62.2791121 65.3852671,62.2791121 C67.0986675,62.2791121 68.4892533,63.6641887 68.4892533,65.3738927 Z M68.4892533,53.0040453 C68.4892533,54.7137493 67.0986675,56.0988259 65.3852671,56.0988259 C63.6718668,56.0988259 62.281281,54.7137493 62.281281,53.0040453 C62.281281,51.297433 63.6718668,49.9154481 65.3852671,49.9154481 C67.0986675,49.9154481 68.4892533,51.297433 68.4892533,53.0040453 Z M68.4892533,40.6403813 C68.4892533,42.3469936 67.0986675,43.7289785 65.3852671,43.7289785 C63.6718668,43.7289785 62.281281,42.3469936 62.281281,40.6403813 C62.281281,38.9306773 63.6718668,37.5486924 65.3852671,37.5486924 C67.0986675,37.5486924 68.4892533,38.9306773 68.4892533,40.6403813 Z" transform="translate(86.653 3.984)"/>
          <path fill="#FFF" fill-rule="nonzero" d="M158.125677,98.1604858 C157.683631,98.8453502 157.020442,99.7271433 155.997576,101.004129 C155.681342,101.398929 153.59409,103.96692 152.957989,104.76583 C151.951325,106.030151 151.117817,107.121109 150.365351,108.17381 C147.422166,112.291332 145.891884,115.546916 146.07885,118.610058 C146.624399,127.580268 140.877038,138.748011 133.65159,142.445049 C130.184608,144.218847 128.933639,146.365427 127.913132,150.547808 C127.302997,153.048345 127.09992,153.732333 126.523939,154.925155 C125.480293,157.087206 124.20448,158.177198 122.013982,159.120683 C121.53988,159.324886 121.49533,159.342188 120.134698,159.860123 C115.03434,161.801618 112.666794,164.000673 111.914929,169.43445 C111.086011,175.417752 108.139723,178.167813 103.93626,178.064884 C99.5049187,177.956376 94.360707,174.686343 90.9683312,169.43775 C87.7034842,164.398035 80.1251979,164.398035 76.8621107,169.43503 C73.4679752,174.686343 68.3237635,177.956376 63.8924226,178.064884 C59.6889587,178.167813 56.7426714,175.417752 55.9136829,169.433941 C55.1600606,164.000338 52.7926426,161.801676 47.6929805,159.860175 C46.3334745,159.342595 46.2884606,159.325112 45.8145643,159.120978 C43.6242207,158.177475 42.3485324,157.087503 41.3049183,154.925519 C40.7287618,153.732333 40.5256852,153.048345 39.9155503,150.547808 C38.8950431,146.365427 37.6440737,144.218847 34.1769972,142.445001 C26.9516444,138.748011 21.2042836,127.580268 21.7498736,118.609384 C21.9350791,115.545914 20.4043443,112.291214 17.4609687,108.173724 C16.7094399,107.12241 15.8771068,106.032887 14.8718489,104.770085 C14.2372206,103.972866 12.1514606,101.406068 11.8313858,101.006329 C10.8086975,99.7291005 10.145483,98.8467585 9.70383085,98.161765 C5.05321376,90.9485192 5.05321376,80.8457901 9.70385569,73.6325058 C12.7506696,68.9069601 14.5273576,59.7706952 14.1292754,53.1860361 C13.5865148,44.2616736 18.3809611,35.0630632 25.6453945,31.3474202 C26.785837,30.7635513 27.3462493,30.5747546 29.8560948,29.8450207 C33.9469226,28.6556184 36.0670663,27.2852558 37.7799737,23.7403922 C41.1893206,16.6748147 43.4505987,15.6038557 52.6347612,16.1946987 C55.1836903,16.3588931 57.2486818,15.3767985 59.4585074,13.4429108 C59.9126565,13.0454706 60.3546774,12.6279236 60.9586876,12.0354801 C61.1124316,11.8846803 61.6353323,11.3688205 61.6677294,11.336934 C61.9439197,11.0650962 62.1573715,10.8571206 62.3658695,10.657521 C64.7365616,8.38800865 66.5045879,7.29970457 68.8432989,6.94415397 C69.6360761,6.74197511 69.6360761,6.74197511 70.0957204,6.46920648 C70.4047299,6.2480589 70.4047299,6.2480589 70.4989444,6.16255691 C70.5084225,6.15415175 70.5084225,6.15415175 70.5105404,6.15226487 C70.4482589,6.21404243 70.4482589,6.21404243 70.0463179,6.48636985 L70.2237735,6.3750365 C70.6116005,6.11310686 71.637625,6.10550091 73.1111273,6.60025185 C74.8126749,7.17157245 76.7076708,8.29555845 78.2489369,9.64465506 C81.3721014,12.3737316 85.9042228,12.4160657 89.2279885,9.90745812 C91.6544339,8.07925226 95.4153231,6.90832847 99.3483645,6.90832847 C98.1091675,6.71087317 98.1091675,6.71087317 97.4594173,6.25948112 C97.0967872,5.9337258 97.0967872,5.9337258 97.0559318,5.87892971 C97.1200967,5.96044261 97.1200967,5.96044261 97.5075904,6.30846194 C98.183758,6.7776652 98.183758,6.7776652 99.4540344,6.97957329 C101.742234,6.97957329 103.399624,7.99641253 105.921268,10.6339192 C106.174822,10.8991231 107.089629,11.8730723 107.049572,11.8306482 C107.525236,12.3344225 107.886755,12.7060772 108.251682,13.0605269 C110.503377,15.2475772 112.556541,16.3645908 115.194182,16.194682 C124.378083,15.6038557 126.639362,16.6748147 130.047968,23.7388579 C131.761616,27.2852558 133.88176,28.6556184 137.972587,29.8450207 C140.482433,30.5747546 141.042845,30.7635513 142.182227,31.3468777 C149.447721,35.0630632 154.242167,44.2616736 153.699474,53.184925 C153.301037,59.7754442 155.076214,68.909272 158.125677,73.6338236 C162.775468,80.8457901 162.775468,90.9485192 158.124826,98.1618036 L158.125677,98.1604858 Z M163.354128,101.510915 C169.320204,92.2573523 169.320204,79.536957 163.354128,70.2833943 C161.10652,66.8011599 159.578694,58.9400303 159.904031,53.5586517 C160.590538,42.2707362 154.56993,30.7196146 145.021319,25.8356511 C143.397406,25.0042608 142.630011,24.7457338 139.71332,23.8977102 C137.148678,23.1520442 136.443274,22.6961038 135.648963,21.052275 C131.040887,11.502433 126.327897,9.27032422 114.793535,10.0123623 C114.32458,10.0425709 113.701957,9.70383629 112.589919,8.62372412 C112.301596,8.34367876 111.99572,8.02922721 111.57624,7.58495691 C111.633429,7.64552624 110.697232,6.64880389 110.421274,6.3601667 C106.835242,2.60936629 103.860604,0.784371234 99.4540344,0.784371234 C100.693231,0.981826526 100.693231,0.981826526 101.342982,1.43321858 C101.705612,1.7589739 101.705612,1.7589739 101.746467,1.81376999 C101.682302,1.73225709 101.682302,1.73225709 101.294809,1.38423776 C100.618641,0.915034504 100.618641,0.915034504 99.3483645,0.713126411 C94.1048325,0.713126411 89.0238142,2.29506217 85.4775064,4.96703065 C84.4507997,5.74193476 83.1980723,5.73023316 82.3486937,4.98803146 C77.3788784,0.637865435 70.8725508,-1.54673352 66.7368617,1.24641837 L68.4803176,3.81072744 L66.9143174,1.13508503 C66.4724208,1.43432124 66.4724208,1.43432124 66.3730701,1.52889391 C66.3691697,1.53236133 66.3691697,1.53236133 66.3726389,1.52928486 C66.4383111,1.46874429 66.4383111,1.46874429 66.7177635,1.26865678 C67.1468358,1.01362485 67.1468358,1.01362485 67.9020633,0.820391076 C64.0483909,1.40625633 61.2700584,3.11645178 58.0599742,6.18953168 C58.2694672,5.98897971 55.9042572,8.30889605 55.3572558,8.78759412 C54.2664554,9.74218783 53.6192602,10.0499891 53.0354083,10.0123791 C41.5007849,9.27032422 36.7877952,11.502433 32.1789788,21.0538093 C31.3854079,22.6961038 30.6800041,23.1520442 28.115362,23.8977102 C25.1986711,24.7457338 24.4312758,25.0042608 22.8063029,25.8361937 C13.2587525,30.7196146 7.23814406,42.2707362 7.92471862,53.5597628 C8.24973996,58.9359284 6.72043374,66.8000816 4.47457917,70.2833558 C-1.49152225,79.536957 -1.49152225,92.2573523 4.47455433,101.510915 C5.06068025,102.419984 5.82666253,103.439049 6.97297314,104.870668 C7.31384122,105.296376 9.3920872,107.853927 10.0024395,108.62065 C10.9465078,109.806586 11.7175273,110.81585 12.3985556,111.768541 C14.5536055,114.783242 15.6173045,117.044914 15.5453169,118.235658 C14.8565778,129.560271 21.8166861,143.084514 31.3382489,147.956403 C32.8439981,148.726783 33.239957,149.406222 33.8757097,152.01175 C34.5922842,154.948513 34.8709262,155.887014 35.7037555,157.611755 C37.4570785,161.243994 39.8788101,163.313167 43.3485624,164.807783 C43.6947799,164.956918 44.0499871,165.100866 44.4607114,165.260393 C44.7184045,165.360483 44.9858356,165.462155 45.474936,165.64753 C48.6751121,166.865875 49.3723226,167.513386 49.7562916,170.281795 C51.0012504,179.268166 56.5441374,184.44189 64.0450897,184.258218 C70.6783169,184.095793 77.640887,179.66988 82.0858425,172.792763 C82.898611,171.538153 84.9300711,171.538153 85.7445994,172.795483 C90.1877952,179.66988 97.1503652,184.095793 103.783592,184.258218 C111.284545,184.44189 116.827432,179.268166 118.072456,170.28132 C118.455513,167.512942 119.152281,166.865761 122.352472,165.647582 C122.841779,165.462155 123.109359,165.360441 123.367138,165.260333 C123.778056,165.100752 124.133423,164.956757 124.479797,164.807568 C127.949756,163.312997 130.371689,161.243817 132.125102,157.611391 C132.957756,155.887014 133.236398,154.948513 133.952972,152.01175 C134.588725,149.406222 134.984684,148.726783 136.490338,147.956452 C146.011996,143.084514 152.972104,129.560271 152.283298,118.234547 C152.210612,117.043709 153.273545,114.782384 155.427887,111.768455 C156.109679,110.814627 156.881715,109.804127 157.827029,108.61686 C158.438819,107.848482 160.518334,105.29001 160.855302,104.869327 C162.001448,103.438433 162.767101,102.4204 163.353278,101.512233 L163.354128,101.510915 Z"/>
        </g>
      </g>
    </g>
  </g>
</svg>
