<svg xmlns="http://www.w3.org/2000/svg" xmlns:xlink="http://www.w3.org/1999/xlink" width="640" height="360" viewBox="0 0 640 360">
  <defs>
    <linearGradient id="picture-a" x1="50%" x2="50%" y1="0%" y2="100%">
      <stop offset="0%" stop-color="#FAFAFA"/>
      <stop offset="100%" stop-color="#FFF"/>
    </linearGradient>
    <linearGradient id="picture-d" x1="50%" x2="50%" y1="0%" y2="100%">
      <stop offset="0%" stop-color="#FFE16C"/>
      <stop offset="100%" stop-color="#EDC21D"/>
    </linearGradient>
    <circle id="picture-c" cx="320" cy="180" r="110"/>
    <filter id="picture-b" width="103.6%" height="103.6%" x="-1.8%" y="-.9%" filterUnits="objectBoundingBox">
      <feOffset dy="2" in="SourceAlpha" result="shadowOffsetOuter1"/>
      <feGaussianBlur in="shadowOffsetOuter1" result="shadowBlurOuter1" stdDeviation="1"/>
      <feColorMatrix in="shadowBlurOuter1" values="0 0 0 0 0   0 0 0 0 0   0 0 0 0 0  0 0 0 0.16 0"/>
    </filter>
    <filter id="picture-e" width="212.5%" height="212.5%" x="-56.2%" y="-56.2%" filterUnits="objectBoundingBox">
      <feGaussianBlur in="SourceGraphic" stdDeviation="6"/>
    </filter>
    <circle id="picture-g" cx="320" cy="180" r="32"/>
    <filter id="picture-f" width="121.9%" height="121.9%" x="-10.9%" y="-7.8%" filterUnits="objectBoundingBox">
      <feOffset dy="2" in="SourceAlpha" result="shadowOffsetOuter1"/>
      <feGaussianBlur in="shadowOffsetOuter1" result="shadowBlurOuter1" stdDeviation="2"/>
      <feColorMatrix in="shadowBlurOuter1" values="0 0 0 0 0   0 0 0 0 0   0 0 0 0 0  0 0 0 0.3 0"/>
    </filter>
  </defs>
  <g fill="none" fill-rule="evenodd">
    <rect width="640" height="360" fill="url(#picture-a)"/>
    <use fill="#000" filter="url(#picture-b)" xlink:href="#picture-c"/>
    <use fill="url(#picture-d)" xlink:href="#picture-c"/>
    <path fill="#FFF" fill-opacity=".4" stroke="#FFF" stroke-linecap="round" stroke-linejoin="round" stroke-width="4" d="M261.465144,145.693741 L255.329966,134.957178 C253.987559,132.607967 254.383561,129.650927 256.296784,127.737704 L267.737704,116.296784 C269.650927,114.383561 272.607967,113.987559 274.957178,115.329966 L285.693741,121.465144 C291.00008,118.348474 296.767732,115.932741 302.869507,114.345135 L306.121465,102.421296 C306.833383,99.810928 309.204341,98 311.910048,98 L328.089952,98 C330.795659,98 333.166617,99.810928 333.878535,102.421296 L337.130486,114.345114 C343.232268,115.932741 348.99992,118.348474 354.306259,121.465144 L365.042822,115.329966 C367.392033,113.987559 370.349073,114.383561 372.262296,116.296784 L383.703216,127.737704 C385.616439,129.650927 386.012441,132.607967 384.670034,134.957178 L378.534856,145.693741 C381.651526,151.000081 384.067259,156.767733 385.654866,162.869508 L397.578704,166.121465 C400.189072,166.833383 402,169.204341 402,171.910048 L402,188.089952 C402,190.795659 400.189072,193.166617 397.578704,193.878535 L385.654872,197.13049 C384.067259,203.232267 381.651526,208.999919 378.534856,214.306259 L384.670034,225.042822 C386.012441,227.392033 385.616439,230.349073 383.703216,232.262296 L372.262296,243.703216 C370.349073,245.616439 367.392033,246.012441 365.042822,244.670034 L354.306259,238.534856 C348.99992,241.651526 343.232268,244.067259 337.130493,245.654865 L333.878535,257.578704 C333.166617,260.189072 330.795659,262 328.089952,262 L311.910048,262 C309.204341,262 306.833383,260.189072 306.121465,257.578704 L302.869514,245.654886 C296.767732,244.067259 291.00008,241.651526 285.693741,238.534856 L274.957178,244.670034 C272.607967,246.012441 269.650927,245.616439 267.737704,243.703216 L256.296784,232.262296 C254.383561,230.349073 253.987559,227.392033 255.329966,225.042822 L261.465144,214.306259 C258.348474,208.999919 255.932741,203.232267 254.345134,197.130492 L242.421296,193.878535 C239.810928,193.166617 238,190.795659 238,188.089952 L238,171.910048 C238,169.204341 239.810928,166.833383 242.421296,166.121465 L254.345128,162.86951 C255.932741,156.767733 258.348474,151.000081 261.465144,145.693741 Z"/>
    <circle cx="320" cy="182" r="16" fill="#000" filter="url(#picture-e)" opacity=".2"/>
    <use fill="#000" filter="url(#picture-f)" xlink:href="#picture-g"/>
    <use fill="#285885" xlink:href="#picture-g"/>
    <g stroke-linecap="round" stroke-width="4" transform="translate(305 169)">
      <path stroke="#3E8EE2" d="M4.26368366,9.0401331 C4.09098454,9.83265818 4,10.6557038 4,11.5 C4,17.8512746 9.14872538,23 15.5,23 C17.9110839,23 20.148865,22.2580022 21.9974541,20.9898958 M26.713144,14.0638731 C26.9008671,13.239431 27,12.3812924 27,11.5 C27,5.14872538 21.8512746,0 15.5,0 C13.0897326,0 10.8526508,0.741495271 9.00442426,2.00881595"/>
      <polyline stroke="#FFF" stroke-linejoin="round" points="23 11 27 14.5 30.513 11"/>
      <polyline stroke="#FFF" stroke-linejoin="round" points=".498 8.502 4.498 12.002 8.011 8.502" transform="matrix(1 0 0 -1 0 20.505)"/>
    </g>
    <path stroke="#FFF" stroke-linecap="round" stroke-width="4" d="M309.263684,178.040133 C309.090985,178.832658 309,179.655704 309,180.5 C309,186.851275 314.148725,192 320.5,192 C322.911084,192 325.148865,191.258002 326.997454,189.989896 M331.713144,183.063873 C331.900867,182.239431 332,181.381292 332,180.5 C332,174.148725 326.851275,169 320.5,169 C318.089733,169 315.852651,169.741495 314.004424,171.008816"/>
  </g>
</svg>
