<?xml version="1.0" encoding="UTF-8" standalone="no"?>
<svg width="640px" height="360px" viewBox="0 0 640 360" version="1.1" xmlns="http://www.w3.org/2000/svg" xmlns:xlink="http://www.w3.org/1999/xlink">
    <!-- Generator: Sketch 3.6.1 (26313) - http://www.bohemiancoding.com/sketch -->
    <title>computed-trait</title>
    <desc>Created with Sketch.</desc>
    <defs>
        <radialGradient cx="-7.10561993%" cy="146.843561%" fx="-7.10561993%" fy="146.843561%" r="118.171555%" id="radialGradient-1">
            <stop stop-color="#4BC2B8" offset="0%"></stop>
            <stop stop-color="#25A4D5" offset="100%"></stop>
        </radialGradient>
        <radialGradient cx="0%" cy="100%" fx="0%" fy="100%" r="213.704679%" id="radialGradient-2">
            <stop stop-color="#009AD9" offset="0%"></stop>
            <stop stop-color="#11E6FF" offset="100%"></stop>
        </radialGradient>
    </defs>
    <g id="Ships" stroke="none" stroke-width="1" fill="none" fill-rule="evenodd">
        <g id="computed-trait">
            <rect id="B" fill="url(#radialGradient-2)" x="0" y="0" width="640" height="360"></rect>
            <rect id="B-Copy" fill="#A82E2E" opacity="0.5" x="0" y="0" width="640" height="360"></rect>
            <g id="calculator-2" transform="translate(206.000000, 66.000000)">
                <g id="Layer_1">
                    <g id="Button" transform="translate(0.156250, 0.156250)">
                        <rect id="Rectangle-104" fill="#B8B8B8" style="mix-blend-mode: overlay;" x="0" y="122" width="105" height="105"></rect>
                        <rect id="Rectangle-104-Copy" fill="#B8B8B8" style="mix-blend-mode: overlay;" x="0" y="0" width="105" height="105" rx="10"></rect>
                        <rect id="Rectangle-104-Copy-2" fill="#B8B8B8" style="mix-blend-mode: overlay;" x="122" y="0" width="105" height="105"></rect>
                        <rect id="Rectangle-104-Copy-3" fill="#FF8833" x="122" y="122" width="105" height="105"></rect>
                    </g>
                    <g id="_x2B__x5F_x" transform="translate(25.953125, 26.312500)" fill="#FFFFFF">
                        <path d="M9.078125,34.875 L17.796875,34.875 L17.796875,43.59375 C17.796875,48.4065 21.702875,52.3125 26.515625,52.3125 C31.328375,52.3125 35.234375,48.4065 35.234375,43.59375 L35.234375,34.875 L43.953125,34.875 C48.765875,34.875 52.671875,30.969 52.671875,26.15625 C52.671875,21.3435 48.765875,17.4375 43.953125,17.4375 L35.234375,17.4375 L35.234375,8.71875 C35.234375,3.906 31.328375,0 26.515625,0 C21.702875,0 17.796875,3.906 17.796875,8.71875 L17.796875,17.4375 L9.078125,17.4375 C4.265375,17.4375 0.359375,21.3435 0.359375,26.15625 C0.359375,30.969 4.265375,34.875 9.078125,34.875 L9.078125,34.875 Z M50.091125,124.64325 C46.5513125,121.103437 40.814375,121.103437 37.2789219,124.64325 L26.515625,135.410906 L15.7479687,124.64325 C12.2081562,121.103437 6.47557812,121.103437 2.940125,124.64325 C-0.595328125,128.183062 -0.5996875,133.915641 2.940125,137.451094 L13.7077812,148.21875 L2.940125,158.986406 C-0.5996875,162.521859 -0.5996875,168.254437 2.940125,171.79425 C6.4799375,175.329703 12.2125156,175.329703 15.7479687,171.79425 L26.515625,161.026594 L37.2789219,171.79425 C40.8187344,175.329703 46.5556719,175.329703 50.091125,171.79425 C53.6265781,168.250078 53.6265781,162.5175 50.091125,158.986406 L39.3234687,148.21875 L50.091125,137.451094 C53.6265781,133.915641 53.6265781,128.178703 50.091125,124.64325 L50.091125,124.64325 Z M166.015625,17.4375 L131.140625,17.4375 C126.327875,17.4375 122.421875,21.3435 122.421875,26.15625 C122.421875,30.969 126.327875,34.875 131.140625,34.875 L166.015625,34.875 C170.828375,34.875 174.734375,30.969 174.734375,26.15625 C174.734375,21.3435 170.828375,17.4375 166.015625,17.4375 L166.015625,17.4375 Z" id="Shape"></path>
                    </g>
                    <g id="_x3D_" transform="translate(148.375000, 148.375000)" fill="#FFFFFF">
                        <path d="M8.71875,17.4375 L43.59375,17.4375 C48.4065,17.4375 52.3125,13.5315 52.3125,8.71875 C52.3125,3.906 48.4065,0 43.59375,0 L8.71875,0 C3.906,0 0,3.906 0,8.71875 C0,13.5315 3.906,17.4375 8.71875,17.4375 L8.71875,17.4375 Z M43.59375,34.875 L8.71875,34.875 C3.906,34.875 0,38.781 0,43.59375 C0,48.4065 3.906,52.3125 8.71875,52.3125 L43.59375,52.3125 C48.4065,52.3125 52.3125,48.4065 52.3125,43.59375 C52.3125,38.781 48.4065,34.875 43.59375,34.875 L43.59375,34.875 Z" id="Shape"></path>
                    </g>
                </g>
            </g>
        </g>
    </g>
</svg>