<?xml version="1.0" encoding="UTF-8" standalone="no"?>
<svg width="640px" height="360px" viewBox="0 0 640 360" version="1.1" xmlns="http://www.w3.org/2000/svg" xmlns:xlink="http://www.w3.org/1999/xlink">
    <!-- Generator: Sketch 3.8.3 (29802) - http://www.bohemiancoding.com/sketch -->
    <title>processor</title>
    <desc>Created with Sketch.</desc>
    <defs>
        <radialGradient cx="-7.10561993%" cy="146.843561%" fx="-7.10561993%" fy="146.843561%" r="118.171555%" id="radialGradient-1">
            <stop stop-color="#4BC2B8" offset="0%"></stop>
            <stop stop-color="#25A4D5" offset="100%"></stop>
        </radialGradient>
        <radialGradient cx="0%" cy="100%" fx="0%" fy="100%" r="213.704679%" id="radialGradient-2">
            <stop stop-color="#009AD9" offset="0%"></stop>
            <stop stop-color="#11E6FF" offset="100%"></stop>
        </radialGradient>
        <linearGradient x1="14.2197225%" y1="2.98158213%" x2="91.3534103%" y2="90.8621427%" id="linearGradient-3">
            <stop stop-color="#48416C" offset="0%"></stop>
            <stop stop-color="#231F3A" offset="100%"></stop>
        </linearGradient>
        <radialGradient cx="83.5892974%" cy="13.7337785%" fx="83.5892974%" fy="13.7337785%" r="148.018384%" id="radialGradient-4">
            <stop stop-color="#049CD6" offset="0%"></stop>
            <stop stop-color="#4BC2B8" offset="100%"></stop>
        </radialGradient>
    </defs>
    <g id="Ships" stroke="none" stroke-width="1" fill="none" fill-rule="evenodd">
        <g id="processor">
            <rect id="B" fill="url(#radialGradient-2)" x="0" y="0" width="640" height="360"></rect>
            <rect id="B-Copy" fill="#A82E2E" opacity="0.5" x="0" y="0" width="640" height="360"></rect>
            <g id="Group-3">
                <rect id="Rectangle-1" fill="url(#linearGradient-3)" x="0" y="0" width="639.583685" height="359.37609"></rect>
                <rect id="Rectangle-1-Copy" fill="url(#radialGradient-4)" opacity="0.1" x="0" y="0" width="639.583685" height="359.37609"></rect>
            </g>
            <g id="calculator-2" transform="translate(413.000000, 102.000000)">
                <g id="Layer_1">
                    <g id="Button" transform="translate(0.106908, 0.106908)">
                        <rect id="Rectangle-104" fill="#B8B8B8" style="mix-blend-mode: overlay;" x="0" y="83.4736842" width="71.8421053" height="71.8421053"></rect>
                        <rect id="Rectangle-104-Copy" fill="#B8B8B8" style="mix-blend-mode: overlay;" x="0" y="0" width="71.8421053" height="71.8421053" rx="10"></rect>
                        <rect id="Rectangle-104-Copy-2" fill="#B8B8B8" style="mix-blend-mode: overlay;" x="83.4736842" y="0" width="71.8421053" height="71.8421053"></rect>
                        <rect id="Rectangle-104-Copy-3" fill="#FF8833" x="83.4736842" y="83.4736842" width="71.8421053" height="71.8421053"></rect>
                    </g>
                    <g id="_x2B__x5F_x" transform="translate(17.757401, 18.003289)" fill="#FFFFFF">
                        <path d="M6.21134868,23.8618421 L12.1768092,23.8618421 L12.1768092,29.8273026 C12.1768092,33.1202368 14.8493355,35.7927632 18.1422697,35.7927632 C21.4352039,35.7927632 24.1077303,33.1202368 24.1077303,29.8273026 L24.1077303,23.8618421 L30.0731908,23.8618421 C33.366125,23.8618421 36.0386513,21.1893158 36.0386513,17.8963816 C36.0386513,14.6034474 33.366125,11.9309211 30.0731908,11.9309211 L24.1077303,11.9309211 L24.1077303,5.96546053 C24.1077303,2.67252632 21.4352039,0 18.1422697,0 C14.8493355,0 12.1768092,2.67252632 12.1768092,5.96546053 L12.1768092,11.9309211 L6.21134868,11.9309211 C2.91841447,11.9309211 0.245888158,14.6034474 0.245888158,17.8963816 C0.245888158,21.1893158 2.91841447,23.8618421 6.21134868,23.8618421 L6.21134868,23.8618421 Z M34.272875,85.2822237 C31.850898,82.8602467 27.925625,82.8602467 25.5066308,85.2822237 L18.1422697,92.6495674 L10.774926,85.2822237 C8.35294901,82.8602467 4.43065872,82.8602467 2.01166447,85.2822237 C-0.40732977,87.7042007 -0.4103125,91.626491 2.01166447,94.0454852 L9.37900822,101.412829 L2.01166447,108.780173 C-0.4103125,111.199167 -0.4103125,115.121457 2.01166447,117.543434 C4.43364145,119.962428 8.35593174,119.962428 10.774926,117.543434 L18.1422697,110.17609 L25.5066308,117.543434 C27.9286077,119.962428 31.8538808,119.962428 34.272875,117.543434 C36.6918692,115.118475 36.6918692,111.196184 34.272875,108.780173 L26.9055312,101.412829 L34.272875,94.0454852 C36.6918692,91.626491 36.6918692,87.7012179 34.272875,85.2822237 L34.272875,85.2822237 Z M113.589638,11.9309211 L89.7277961,11.9309211 C86.4348618,11.9309211 83.7623355,14.6034474 83.7623355,17.8963816 C83.7623355,21.1893158 86.4348618,23.8618421 89.7277961,23.8618421 L113.589638,23.8618421 C116.882572,23.8618421 119.555099,21.1893158 119.555099,17.8963816 C119.555099,14.6034474 116.882572,11.9309211 113.589638,11.9309211 L113.589638,11.9309211 Z" id="Shape"></path>
                    </g>
                    <g id="_x3D_" transform="translate(101.519737, 101.519737)" fill="#FFFFFF">
                        <path d="M5.96546053,11.9309211 L29.8273026,11.9309211 C33.1202368,11.9309211 35.7927632,9.25839474 35.7927632,5.96546053 C35.7927632,2.67252632 33.1202368,0 29.8273026,0 L5.96546053,0 C2.67252632,0 0,2.67252632 0,5.96546053 C0,9.25839474 2.67252632,11.9309211 5.96546053,11.9309211 L5.96546053,11.9309211 Z M29.8273026,23.8618421 L5.96546053,23.8618421 C2.67252632,23.8618421 0,26.5343684 0,29.8273026 C0,33.1202368 2.67252632,35.7927632 5.96546053,35.7927632 L29.8273026,35.7927632 C33.1202368,35.7927632 35.7927632,33.1202368 35.7927632,29.8273026 C35.7927632,26.5343684 33.1202368,23.8618421 29.8273026,23.8618421 L29.8273026,23.8618421 Z" id="Shape"></path>
                    </g>
                </g>
            </g>
            <g id="Group-7" opacity="0.2" transform="translate(267.000000, 159.000000)" stroke="#FFFFFF" stroke-width="5">
                <path d="M28,47.8017917 L28,-9.6450168" id="Path" transform="translate(30.500000, 19.078387) rotate(-270.000000) translate(-30.500000, -19.078387) "></path>
                <path d="M18.2516463,18.3225084 L0.179747382,0.181410974" id="Path" transform="translate(9.215697, 9.251960) rotate(-270.000000) translate(-9.215697, -9.251960) "></path>
                <path d="M18.2516463,16.0246361 L0.179747382,34.1657335" id="Path" transform="translate(9.215697, 25.095185) rotate(-270.000000) translate(-9.215697, -25.095185) "></path>
                <path d="M18.2516463,18.3225084 L0.179747382,0.181410974" id="Path" transform="translate(9.215697, 9.251960) rotate(-270.000000) translate(-9.215697, -9.251960) "></path>
                <path d="M57,10.0078387 L57,67.4546473" id="Path" transform="translate(59.500000, 38.731243) rotate(-270.000000) translate(-59.500000, -38.731243) "></path>
                <path d="M71.7483537,37.9753639 L89.8202526,19.8342665" id="Path" transform="translate(80.784303, 28.904815) rotate(-270.000000) translate(-80.784303, -28.904815) "></path>
                <path d="M71.7483537,35.6774916 L89.8202526,53.818589" id="Path" transform="translate(80.784303, 44.748040) rotate(-270.000000) translate(-80.784303, -44.748040) "></path>
            </g>
            <g id="Brain" transform="translate(74.000000, 95.000000)">
                <path d="M148.452685,92.1156423 C145.791852,96.230751 137.476389,104.321038 137.777778,109.25003 C138.331759,118.342678 132.685741,129.882688 124.746296,133.937826 C120.440741,136.136739 121.577407,139.720682 119.438981,144.141354 C115.492222,152.303034 107.415,147.930909 106.203704,156.669447 C104.154259,171.436433 89.0331481,169.306057 81.6017593,157.828874 C79.7187963,154.927451 75.2812037,154.927451 73.3982407,157.828874 C65.9668519,169.306057 50.8457407,171.436433 48.7962963,156.669447 C47.5821296,147.930909 39.5077778,152.303034 35.5610185,144.141354 C33.4225926,139.720682 34.5592593,136.136739 30.2537037,133.937826 C22.3142593,129.882688 16.6682407,118.342678 17.2222222,109.25003 C17.5207407,104.321038 9.20527778,96.230751 6.54731481,92.1156423 C1.64472222,84.5251087 1.64472222,74.0045949 6.54731481,66.4140613 C9.20527778,62.2989526 10.4825926,54.208666 10.1840741,49.2796739 C9.63009259,40.1870257 14.4322222,30.4889625 22.374537,26.4338241 C26.6772222,24.2349111 30.1647222,25.1458893 32.3060185,20.7223617 C36.2499074,12.5635375 39.9469444,11.5868775 48.7962963,12.155168 C53.5926852,12.463587 55.7339815,4.77881423 63.1481481,3.65365613 C63.185463,3.64794466 63.2112963,3.60796443 63.2457407,3.58797431 C65.8635185,1.82313241 70.8378704,3.9163834 74.1617593,6.82066206 C76.0246296,8.44557312 78.6998148,8.41987154 80.6746296,6.93203557 C83.3211111,4.94159091 87.3568519,3.58797431 91.7542593,3.58797431 C91.7944444,3.58797431 91.8116667,3.65365613 91.8518519,3.65365613 C99.2660185,3.65365613 101.407315,12.463587 106.203704,12.155168 C115.053056,11.5868775 118.750093,12.5635375 122.693981,20.7223617 C124.835278,25.1458893 128.322778,24.2349111 132.625463,26.4338241 C140.567778,30.4889625 145.369907,40.1870257 144.815926,49.2796739 C144.517407,54.208666 145.791852,62.2989526 148.452685,66.4140613 C153.355278,74.0045949 153.355278,84.5251087 148.452685,92.1156423 L148.452685,92.1156423 L148.452685,92.1156423 Z" id="Fill-41" fill="#FFFFFF" opacity="0.1"></path>
                <g id="Group" transform="translate(14.258658, 22.630323)" fill="#0096E6">
                    <path d="M23.0561568,117.384499 C23.0561568,109.492071 29.4751223,103.105843 37.4080087,103.105843 L37.4080087,97.3943806 C26.3045987,97.3943806 17.3154161,106.337718 17.3154161,117.384499 L23.0561568,117.384499 L23.0561568,117.384499 Z" id="Path"></path>
                    <path d="M31.6672679,14.5781751 C31.6672679,6.68697656 25.2470667,0.29951898 17.3154161,0.29951898 L17.3154161,6.01098143 C22.0765432,6.01098143 25.9265272,9.84133017 25.9265272,14.5781751 L31.6672679,14.5781751 L31.6672679,14.5781751 Z" id="Path"></path>
                    <path d="M5.83393458,85.9714557 C5.83393458,76.4998084 13.5359556,68.8370684 23.0561568,68.8370684 C35.7468816,68.8370684 46.0191198,58.6172195 46.0191198,45.9912186 L40.278379,45.9912186 C40.278379,55.4628659 32.576358,63.1256059 23.0561568,63.1256059 C10.3654321,63.1256059 0.0931938432,73.3454548 0.0931938432,85.9714557 L5.83393458,85.9714557 L5.83393458,85.9714557 Z" id="Path"></path>
                    <path d="M45.3729799,68.7767931 C37.7792704,76.3317741 37.7792704,88.557976 45.3734301,96.1100543 L49.4318465,92.0705449 C44.0806358,86.7489869 44.0806358,78.1397738 49.4322966,72.8154069 L45.3729799,68.7767931 L45.3729799,68.7767931 Z" id="Path"></path>
                    <path d="M50.4447626,14.8724569 C39.8698606,13.0262614 29.8086228,20.045119 27.9531508,30.5650244 L33.6074961,31.5521756 C34.9149115,24.1395677 42.0000402,19.1968846 49.452551,20.4979645 L50.4447626,14.8724569 L50.4447626,14.8724569 Z" id="Path"></path>
                    <path d="M11.1121406,47.2445905 C21.6858895,49.093935 31.7483304,42.0739286 33.6073427,31.5530445 L27.9533042,30.5641555 C26.6431666,37.9787408 19.5567916,42.9225113 12.1060989,41.6193882 L11.1121406,47.2445905 L11.1121406,47.2445905 Z" id="Path"></path>
                </g>
                <g id="Group-2" transform="translate(80.183983, 3.904840)" fill="#D8D9E7">
                    <path d="M23.1493506,157.479419 C23.1493506,155.900199 21.8634247,154.623688 20.2789803,154.623688 C18.6945358,154.623688 17.4086099,155.900199 17.4086099,157.479419 C17.4086099,159.055782 18.6945358,160.332294 20.2789803,160.332294 C21.8634247,160.332294 23.1493506,159.055782 23.1493506,157.479419 Z M11.6678692,157.479419 C11.6678692,155.900199 10.3819432,154.623688 8.7974988,154.623688 C7.21305435,154.623688 5.92712843,155.900199 5.92712843,157.479419 C5.92712843,159.055782 7.21305435,160.332294 8.7974988,160.332294 C10.3819432,160.332294 11.6678692,159.055782 11.6678692,157.479419 Z M28.8900914,151.765101 C28.8900914,150.188737 27.6041655,148.912225 26.019721,148.912225 C24.4352766,148.912225 23.1493506,150.188737 23.1493506,151.765101 C23.1493506,153.34432 24.4352766,154.623688 26.019721,154.623688 C27.6041655,154.623688 28.8900914,153.34432 28.8900914,151.765101 Z M5.92712843,151.765101 C5.92712843,150.188737 4.6412025,148.912225 3.05675806,148.912225 C1.47231361,148.912225 0.186387686,150.188737 0.186387686,151.765101 C0.186387686,153.34432 1.47231361,154.623688 3.05675806,154.623688 C4.6412025,154.623688 5.92712843,153.34432 5.92712843,151.765101 Z M23.1493506,146.056494 C23.1493506,144.477275 21.8634247,143.197907 20.2789803,143.197907 C18.6945358,143.197907 17.4086099,144.477275 17.4086099,146.056494 C17.4086099,147.632858 18.6945358,148.912225 20.2789803,148.912225 C21.8634247,148.912225 23.1493506,147.632858 23.1493506,146.056494 Z M11.6678692,146.056494 C11.6678692,144.477275 10.3819432,143.197907 8.7974988,143.197907 C7.21305435,143.197907 5.92712843,144.477275 5.92712843,146.056494 C5.92712843,147.632858 7.21305435,148.912225 8.7974988,148.912225 C10.3819432,148.912225 11.6678692,147.632858 11.6678692,146.056494 Z M17.4086099,140.345032 C17.4086099,138.765812 16.122684,137.4893 14.5382395,137.4893 C12.9537951,137.4893 11.6678692,138.765812 11.6678692,140.345032 C11.6678692,141.921395 12.9537951,143.197907 14.5382395,143.197907 C16.122684,143.197907 17.4086099,141.921395 17.4086099,140.345032 Z M28.8900914,140.345032 C28.8900914,138.765812 27.6041655,137.4893 26.019721,137.4893 C24.4352766,137.4893 23.1493506,138.765812 23.1493506,140.345032 C23.1493506,141.921395 24.4352766,143.197907 26.019721,143.197907 C27.6041655,143.197907 28.8900914,141.921395 28.8900914,140.345032 Z M5.92712843,140.345032 C5.92712843,138.765812 4.6412025,137.4893 3.05675806,137.4893 C1.47231361,137.4893 0.186387686,138.765812 0.186387686,140.345032 C0.186387686,141.921395 1.47231361,143.197907 3.05675806,143.197907 C4.6412025,143.197907 5.92712843,141.921395 5.92712843,140.345032 Z M28.8900914,128.922107 C28.8900914,127.342887 27.6041655,126.06352 26.019721,126.06352 C24.4352766,126.06352 23.1493506,127.342887 23.1493506,128.922107 C23.1493506,130.49847 24.4352766,131.777838 26.019721,131.777838 C27.6041655,131.777838 28.8900914,130.49847 28.8900914,128.922107 Z M5.92712843,128.922107 C5.92712843,127.342887 4.6412025,126.06352 3.05675806,126.06352 C1.47231361,126.06352 0.186387686,127.342887 0.186387686,128.922107 C0.186387686,130.49847 1.47231361,131.777838 3.05675806,131.777838 C4.6412025,131.777838 5.92712843,130.49847 5.92712843,128.922107 Z M11.6678692,123.210644 C11.6678692,121.631425 10.3819432,120.354913 8.7974988,120.354913 C7.21305435,120.354913 5.92712843,121.631425 5.92712843,123.210644 C5.92712843,124.787008 7.21305435,126.06352 8.7974988,126.06352 C10.3819432,126.06352 11.6678692,124.787008 11.6678692,123.210644 Z M17.4086099,117.496326 C17.4086099,115.919962 16.122684,114.64345 14.5382395,114.64345 C12.9537951,114.64345 11.6678692,115.919962 11.6678692,117.496326 C11.6678692,119.075545 12.9537951,120.354913 14.5382395,120.354913 C16.122684,120.354913 17.4086099,119.075545 17.4086099,117.496326 Z M28.8900914,117.496326 C28.8900914,115.919962 27.6041655,114.64345 26.019721,114.64345 C24.4352766,114.64345 23.1493506,115.919962 23.1493506,117.496326 C23.1493506,119.075545 24.4352766,120.354913 26.019721,120.354913 C27.6041655,120.354913 28.8900914,119.075545 28.8900914,117.496326 Z M5.92712843,117.496326 C5.92712843,115.919962 4.6412025,114.64345 3.05675806,114.64345 C1.47231361,114.64345 0.186387686,115.919962 0.186387686,117.496326 C0.186387686,119.075545 1.47231361,120.354913 3.05675806,120.354913 C4.6412025,120.354913 5.92712843,119.075545 5.92712843,117.496326 Z M23.1493506,111.787719 C23.1493506,110.2085 21.8634247,108.929132 20.2789803,108.929132 C18.6945358,108.929132 17.4086099,110.2085 17.4086099,111.787719 C17.4086099,113.364083 18.6945358,114.64345 20.2789803,114.64345 C21.8634247,114.64345 23.1493506,113.364083 23.1493506,111.787719 Z M5.92712843,106.076257 C5.92712843,104.497037 4.6412025,103.220526 3.05675806,103.220526 C1.47231361,103.220526 0.186387686,104.497037 0.186387686,106.076257 C0.186387686,107.65262 1.47231361,108.929132 3.05675806,108.929132 C4.6412025,108.929132 5.92712843,107.65262 5.92712843,106.076257 Z M23.1493506,100.361939 C23.1493506,98.785575 21.8634247,97.5090631 20.2789803,97.5090631 C18.6945358,97.5090631 17.4086099,98.785575 17.4086099,100.361939 C17.4086099,101.941158 18.6945358,103.220526 20.2789803,103.220526 C21.8634247,103.220526 23.1493506,101.941158 23.1493506,100.361939 Z M11.6678692,100.361939 C11.6678692,98.785575 10.3819432,97.5090631 8.7974988,97.5090631 C7.21305435,97.5090631 5.92712843,98.785575 5.92712843,100.361939 C5.92712843,101.941158 7.21305435,103.220526 8.7974988,103.220526 C10.3819432,103.220526 11.6678692,101.941158 11.6678692,100.361939 Z M5.92712843,94.6533319 C5.92712843,93.0741125 4.6412025,91.7947449 3.05675806,91.7947449 C1.47231361,91.7947449 0.186387686,93.0741125 0.186387686,94.6533319 C0.186387686,96.2296955 1.47231361,97.5090631 3.05675806,97.5090631 C4.6412025,97.5090631 5.92712843,96.2296955 5.92712843,94.6533319 Z M11.6678692,88.9418695 C11.6678692,87.3626501 10.3819432,86.0861382 8.7974988,86.0861382 C7.21305435,86.0861382 5.92712843,87.3626501 5.92712843,88.9418695 C5.92712843,90.5182331 7.21305435,91.7947449 8.7974988,91.7947449 C10.3819432,91.7947449 11.6678692,90.5182331 11.6678692,88.9418695 Z M17.4086099,83.2275513 C17.4086099,81.6511876 16.122684,80.3746758 14.5382395,80.3746758 C12.9537951,80.3746758 11.6678692,81.6511876 11.6678692,83.2275513 C11.6678692,84.8067706 12.9537951,86.0861382 14.5382395,86.0861382 C16.122684,86.0861382 17.4086099,84.8067706 17.4086099,83.2275513 Z M28.8900914,83.2275513 C28.8900914,81.6511876 27.6041655,80.3746758 26.019721,80.3746758 C24.4352766,80.3746758 23.1493506,81.6511876 23.1493506,83.2275513 C23.1493506,84.8067706 24.4352766,86.0861382 26.019721,86.0861382 C27.6041655,86.0861382 28.8900914,84.8067706 28.8900914,83.2275513 Z M5.92712843,83.2275513 C5.92712843,81.6511876 4.6412025,80.3746758 3.05675806,80.3746758 C1.47231361,80.3746758 0.186387686,81.6511876 0.186387686,83.2275513 C0.186387686,84.8067706 1.47231361,86.0861382 3.05675806,86.0861382 C4.6412025,86.0861382 5.92712843,84.8067706 5.92712843,83.2275513 Z M23.1493506,77.5189446 C23.1493506,75.9397252 21.8634247,74.6603576 20.2789803,74.6603576 C18.6945358,74.6603576 17.4086099,75.9397252 17.4086099,77.5189446 C17.4086099,79.0953082 18.6945358,80.3746758 20.2789803,80.3746758 C21.8634247,80.3746758 23.1493506,79.0953082 23.1493506,77.5189446 Z M17.4086099,71.8074821 C17.4086099,70.2282627 16.122684,68.9517509 14.5382395,68.9517509 C12.9537951,68.9517509 11.6678692,70.2282627 11.6678692,71.8074821 C11.6678692,73.3838457 12.9537951,74.6603576 14.5382395,74.6603576 C16.122684,74.6603576 17.4086099,73.3838457 17.4086099,71.8074821 Z M28.8900914,71.8074821 C28.8900914,70.2282627 27.6041655,68.9517509 26.019721,68.9517509 C24.4352766,68.9517509 23.1493506,70.2282627 23.1493506,71.8074821 C23.1493506,73.3838457 24.4352766,74.6603576 26.019721,74.6603576 C27.6041655,74.6603576 28.8900914,73.3838457 28.8900914,71.8074821 Z M5.92712843,71.8074821 C5.92712843,70.2282627 4.6412025,68.9517509 3.05675806,68.9517509 C1.47231361,68.9517509 0.186387686,70.2282627 0.186387686,71.8074821 C0.186387686,73.3838457 1.47231361,74.6603576 3.05675806,74.6603576 C4.6412025,74.6603576 5.92712843,73.3838457 5.92712843,71.8074821 Z M11.6678692,66.0931639 C11.6678692,64.5168003 10.3819432,63.2402884 8.7974988,63.2402884 C7.21305435,63.2402884 5.92712843,64.5168003 5.92712843,66.0931639 C5.92712843,67.6723833 7.21305435,68.9517509 8.7974988,68.9517509 C10.3819432,68.9517509 11.6678692,67.6723833 11.6678692,66.0931639 Z M17.4086099,60.3845572 C17.4086099,58.8053378 16.122684,57.5259702 14.5382395,57.5259702 C12.9537951,57.5259702 11.6678692,58.8053378 11.6678692,60.3845572 C11.6678692,61.9609208 12.9537951,63.2402884 14.5382395,63.2402884 C16.122684,63.2402884 17.4086099,61.9609208 17.4086099,60.3845572 Z M23.1493506,54.6730947 C23.1493506,53.0938754 21.8634247,51.8173635 20.2789803,51.8173635 C18.6945358,51.8173635 17.4086099,53.0938754 17.4086099,54.6730947 C17.4086099,56.2494584 18.6945358,57.5259702 20.2789803,57.5259702 C21.8634247,57.5259702 23.1493506,56.2494584 23.1493506,54.6730947 Z M11.6678692,54.6730947 C11.6678692,53.0938754 10.3819432,51.8173635 8.7974988,51.8173635 C7.21305435,51.8173635 5.92712843,53.0938754 5.92712843,54.6730947 C5.92712843,56.2494584 7.21305435,57.5259702 8.7974988,57.5259702 C10.3819432,57.5259702 11.6678692,56.2494584 11.6678692,54.6730947 Z M5.92712843,48.9587766 C5.92712843,47.3824129 4.6412025,46.1059011 3.05675806,46.1059011 C1.47231361,46.1059011 0.186387686,47.3824129 0.186387686,48.9587766 C0.186387686,50.5379959 1.47231361,51.8173635 3.05675806,51.8173635 C4.6412025,51.8173635 5.92712843,50.5379959 5.92712843,48.9587766 Z M23.1493506,43.2501698 C23.1493506,41.6709505 21.8634247,40.3915829 20.2789803,40.3915829 C18.6945358,40.3915829 17.4086099,41.6709505 17.4086099,43.2501698 C17.4086099,44.8265335 18.6945358,46.1059011 20.2789803,46.1059011 C21.8634247,46.1059011 23.1493506,44.8265335 23.1493506,43.2501698 Z M11.6678692,43.2501698 C11.6678692,41.6709505 10.3819432,40.3915829 8.7974988,40.3915829 C7.21305435,40.3915829 5.92712843,41.6709505 5.92712843,43.2501698 C5.92712843,44.8265335 7.21305435,46.1059011 8.7974988,46.1059011 C10.3819432,46.1059011 11.6678692,44.8265335 11.6678692,43.2501698 Z M17.4086099,37.5387074 C17.4086099,35.959488 16.122684,34.6829762 14.5382395,34.6829762 C12.9537951,34.6829762 11.6678692,35.959488 11.6678692,37.5387074 C11.6678692,39.115071 12.9537951,40.3915829 14.5382395,40.3915829 C16.122684,40.3915829 17.4086099,39.115071 17.4086099,37.5387074 Z M28.8900914,37.5387074 C28.8900914,35.959488 27.6041655,34.6829762 26.019721,34.6829762 C24.4352766,34.6829762 23.1493506,35.959488 23.1493506,37.5387074 C23.1493506,39.115071 24.4352766,40.3915829 26.019721,40.3915829 C27.6041655,40.3915829 28.8900914,39.115071 28.8900914,37.5387074 Z M23.1493506,31.8243892 C23.1493506,30.2480256 21.8634247,28.9715137 20.2789803,28.9715137 C18.6945358,28.9715137 17.4086099,30.2480256 17.4086099,31.8243892 C17.4086099,33.4036086 18.6945358,34.6829762 20.2789803,34.6829762 C21.8634247,34.6829762 23.1493506,33.4036086 23.1493506,31.8243892 Z M11.6678692,31.8243892 C11.6678692,30.2480256 10.3819432,28.9715137 8.7974988,28.9715137 C7.21305435,28.9715137 5.92712843,30.2480256 5.92712843,31.8243892 C5.92712843,33.4036086 7.21305435,34.6829762 8.7974988,34.6829762 C10.3819432,34.6829762 11.6678692,33.4036086 11.6678692,31.8243892 Z M5.92712843,26.1157825 C5.92712843,24.5365631 4.6412025,23.2571955 3.05675806,23.2571955 C1.47231361,23.2571955 0.186387686,24.5365631 0.186387686,26.1157825 C0.186387686,27.6921461 1.47231361,28.9715137 3.05675806,28.9715137 C4.6412025,28.9715137 5.92712843,27.6921461 5.92712843,26.1157825 Z M23.1493506,20.40432 C23.1493506,18.8251007 21.8634247,17.5485888 20.2789803,17.5485888 C18.6945358,17.5485888 17.4086099,18.8251007 17.4086099,20.40432 C17.4086099,21.9806837 18.6945358,23.2571955 20.2789803,23.2571955 C21.8634247,23.2571955 23.1493506,21.9806837 23.1493506,20.40432 Z M28.8900914,14.6900019 C28.8900914,13.1136382 27.6041655,11.8371264 26.019721,11.8371264 C24.4352766,11.8371264 23.1493506,13.1136382 23.1493506,14.6900019 C23.1493506,16.2692212 24.4352766,17.5485888 26.019721,17.5485888 C27.6041655,17.5485888 28.8900914,16.2692212 28.8900914,14.6900019 Z M5.92712843,14.6900019 C5.92712843,13.1136382 4.6412025,11.8371264 3.05675806,11.8371264 C1.47231361,11.8371264 0.186387686,13.1136382 0.186387686,14.6900019 C0.186387686,16.2692212 1.47231361,17.5485888 3.05675806,17.5485888 C4.6412025,17.5485888 5.92712843,16.2692212 5.92712843,14.6900019 Z M23.1493506,8.98139515 C23.1493506,7.40217578 21.8634247,6.12280819 20.2789803,6.12280819 C18.6945358,6.12280819 17.4086099,7.40217578 17.4086099,8.98139515 C17.4086099,10.5577588 18.6945358,11.8371264 20.2789803,11.8371264 C21.8634247,11.8371264 23.1493506,10.5577588 23.1493506,8.98139515 Z M11.6678692,8.98139515 C11.6678692,7.40217578 10.3819432,6.12280819 8.7974988,6.12280819 C7.21305435,6.12280819 5.92712843,7.40217578 5.92712843,8.98139515 C5.92712843,10.5577588 7.21305435,11.8371264 8.7974988,11.8371264 C10.3819432,11.8371264 11.6678692,10.5577588 11.6678692,8.98139515 Z M17.4086099,3.26993269 C17.4086099,1.69071333 16.122684,0.414201469 14.5382395,0.414201469 C12.9537951,0.414201469 11.6678692,1.69071333 11.6678692,3.26993269 C11.6678692,4.84629633 12.9537951,6.12280819 14.5382395,6.12280819 C16.122684,6.12280819 17.4086099,4.84629633 17.4086099,3.26993269 Z M5.92712843,3.26993269 C5.92712843,1.69071333 4.6412025,0.414201469 3.05675806,0.414201469 C1.47231361,0.414201469 0.186387686,1.69071333 0.186387686,3.26993269 C0.186387686,4.84629633 1.47231361,6.12280819 3.05675806,6.12280819 C4.6412025,6.12280819 5.92712843,4.84629633 5.92712843,3.26993269 Z M34.6308321,146.056494 C34.6308321,144.477275 33.3449062,143.197907 31.7604618,143.197907 C30.1760173,143.197907 28.8900914,144.477275 28.8900914,146.056494 C28.8900914,147.632858 30.1760173,148.912225 31.7604618,148.912225 C33.3449062,148.912225 34.6308321,147.632858 34.6308321,146.056494 Z M40.3715729,140.345032 C40.3715729,138.765812 39.0856469,137.4893 37.5012025,137.4893 C35.9167581,137.4893 34.6308321,138.765812 34.6308321,140.345032 C34.6308321,141.921395 35.9167581,143.197907 37.5012025,143.197907 C39.0856469,143.197907 40.3715729,141.921395 40.3715729,140.345032 Z M34.6308321,134.630713 C34.6308321,133.05435 33.3449062,131.777838 31.7604618,131.777838 C30.1760173,131.777838 28.8900914,133.05435 28.8900914,134.630713 C28.8900914,136.209933 30.1760173,137.4893 31.7604618,137.4893 C33.3449062,137.4893 34.6308321,136.209933 34.6308321,134.630713 Z M40.3715729,128.922107 C40.3715729,127.342887 39.0856469,126.06352 37.5012025,126.06352 C35.9167581,126.06352 34.6308321,127.342887 34.6308321,128.922107 C34.6308321,130.49847 35.9167581,131.777838 37.5012025,131.777838 C39.0856469,131.777838 40.3715729,130.49847 40.3715729,128.922107 Z M46.1123136,123.210644 C46.1123136,121.631425 44.8263877,120.354913 43.2419432,120.354913 C41.6574988,120.354913 40.3715729,121.631425 40.3715729,123.210644 C40.3715729,124.787008 41.6574988,126.06352 43.2419432,126.06352 C44.8263877,126.06352 46.1123136,124.787008 46.1123136,123.210644 Z M51.8530544,117.496326 C51.8530544,115.919962 50.5671284,114.64345 48.982684,114.64345 C47.3982395,114.64345 46.1123136,115.919962 46.1123136,117.496326 C46.1123136,119.075545 47.3982395,120.354913 48.982684,120.354913 C50.5671284,120.354913 51.8530544,119.075545 51.8530544,117.496326 Z M40.3715729,117.496326 C40.3715729,115.919962 39.0856469,114.64345 37.5012025,114.64345 C35.9167581,114.64345 34.6308321,115.919962 34.6308321,117.496326 C34.6308321,119.075545 35.9167581,120.354913 37.5012025,120.354913 C39.0856469,120.354913 40.3715729,119.075545 40.3715729,117.496326 Z M46.1123136,111.787719 C46.1123136,110.2085 44.8263877,108.929132 43.2419432,108.929132 C41.6574988,108.929132 40.3715729,110.2085 40.3715729,111.787719 C40.3715729,113.364083 41.6574988,114.64345 43.2419432,114.64345 C44.8263877,114.64345 46.1123136,113.364083 46.1123136,111.787719 Z M57.5937951,111.787719 C57.5937951,110.2085 56.3078692,108.929132 54.7234247,108.929132 C53.1389803,108.929132 51.8530544,110.2085 51.8530544,111.787719 C51.8530544,113.364083 53.1389803,114.64345 54.7234247,114.64345 C56.3078692,114.64345 57.5937951,113.364083 57.5937951,111.787719 Z M51.8530544,106.076257 C51.8530544,104.497037 50.5671284,103.220526 48.982684,103.220526 C47.3982395,103.220526 46.1123136,104.497037 46.1123136,106.076257 C46.1123136,107.65262 47.3982395,108.929132 48.982684,108.929132 C50.5671284,108.929132 51.8530544,107.65262 51.8530544,106.076257 Z M46.1123136,100.361939 C46.1123136,98.785575 44.8263877,97.5090631 43.2419432,97.5090631 C41.6574988,97.5090631 40.3715729,98.785575 40.3715729,100.361939 C40.3715729,101.941158 41.6574988,103.220526 43.2419432,103.220526 C44.8263877,103.220526 46.1123136,101.941158 46.1123136,100.361939 Z M57.5937951,100.361939 C57.5937951,98.785575 56.3078692,97.5090631 54.7234247,97.5090631 C53.1389803,97.5090631 51.8530544,98.785575 51.8530544,100.361939 C51.8530544,101.941158 53.1389803,103.220526 54.7234247,103.220526 C56.3078692,103.220526 57.5937951,101.941158 57.5937951,100.361939 Z M34.6308321,100.361939 C34.6308321,98.785575 33.3449062,97.5090631 31.7604618,97.5090631 C30.1760173,97.5090631 28.8900914,98.785575 28.8900914,100.361939 C28.8900914,101.941158 30.1760173,103.220526 31.7604618,103.220526 C33.3449062,103.220526 34.6308321,101.941158 34.6308321,100.361939 Z M46.1123136,88.9418695 C46.1123136,87.3626501 44.8263877,86.0861382 43.2419432,86.0861382 C41.6574988,86.0861382 40.3715729,87.3626501 40.3715729,88.9418695 C40.3715729,90.5182331 41.6574988,91.7947449 43.2419432,91.7947449 C44.8263877,91.7947449 46.1123136,90.5182331 46.1123136,88.9418695 Z M57.5937951,88.9418695 C57.5937951,87.3626501 56.3078692,86.0861382 54.7234247,86.0861382 C53.1389803,86.0861382 51.8530544,87.3626501 51.8530544,88.9418695 C51.8530544,90.5182331 53.1389803,91.7947449 54.7234247,91.7947449 C56.3078692,91.7947449 57.5937951,90.5182331 57.5937951,88.9418695 Z M34.6308321,88.9418695 C34.6308321,87.3626501 33.3449062,86.0861382 31.7604618,86.0861382 C30.1760173,86.0861382 28.8900914,87.3626501 28.8900914,88.9418695 C28.8900914,90.5182331 30.1760173,91.7947449 31.7604618,91.7947449 C33.3449062,91.7947449 34.6308321,90.5182331 34.6308321,88.9418695 Z M46.1123136,77.5189446 C46.1123136,75.9397252 44.8263877,74.6603576 43.2419432,74.6603576 C41.6574988,74.6603576 40.3715729,75.9397252 40.3715729,77.5189446 C40.3715729,79.0953082 41.6574988,80.3746758 43.2419432,80.3746758 C44.8263877,80.3746758 46.1123136,79.0953082 46.1123136,77.5189446 Z M57.5937951,77.5189446 C57.5937951,75.9397252 56.3078692,74.6603576 54.7234247,74.6603576 C53.1389803,74.6603576 51.8530544,75.9397252 51.8530544,77.5189446 C51.8530544,79.0953082 53.1389803,80.3746758 54.7234247,80.3746758 C56.3078692,80.3746758 57.5937951,79.0953082 57.5937951,77.5189446 Z M40.3715729,71.8074821 C40.3715729,70.2282627 39.0856469,68.9517509 37.5012025,68.9517509 C35.9167581,68.9517509 34.6308321,70.2282627 34.6308321,71.8074821 C34.6308321,73.3838457 35.9167581,74.6603576 37.5012025,74.6603576 C39.0856469,74.6603576 40.3715729,73.3838457 40.3715729,71.8074821 Z M46.1123136,66.0931639 C46.1123136,64.5168003 44.8263877,63.2402884 43.2419432,63.2402884 C41.6574988,63.2402884 40.3715729,64.5168003 40.3715729,66.0931639 C40.3715729,67.6723833 41.6574988,68.9517509 43.2419432,68.9517509 C44.8263877,68.9517509 46.1123136,67.6723833 46.1123136,66.0931639 Z M51.8530544,60.3845572 C51.8530544,58.8053378 50.5671284,57.5259702 48.982684,57.5259702 C47.3982395,57.5259702 46.1123136,58.8053378 46.1123136,60.3845572 C46.1123136,61.9609208 47.3982395,63.2402884 48.982684,63.2402884 C50.5671284,63.2402884 51.8530544,61.9609208 51.8530544,60.3845572 Z M40.3715729,60.3845572 C40.3715729,58.8053378 39.0856469,57.5259702 37.5012025,57.5259702 C35.9167581,57.5259702 34.6308321,58.8053378 34.6308321,60.3845572 C34.6308321,61.9609208 35.9167581,63.2402884 37.5012025,63.2402884 C39.0856469,63.2402884 40.3715729,61.9609208 40.3715729,60.3845572 Z M46.1123136,54.6730947 C46.1123136,53.0938754 44.8263877,51.8173635 43.2419432,51.8173635 C41.6574988,51.8173635 40.3715729,53.0938754 40.3715729,54.6730947 C40.3715729,56.2494584 41.6574988,57.5259702 43.2419432,57.5259702 C44.8263877,57.5259702 46.1123136,56.2494584 46.1123136,54.6730947 Z M34.6308321,54.6730947 C34.6308321,53.0938754 33.3449062,51.8173635 31.7604618,51.8173635 C30.1760173,51.8173635 28.8900914,53.0938754 28.8900914,54.6730947 C28.8900914,56.2494584 30.1760173,57.5259702 31.7604618,57.5259702 C33.3449062,57.5259702 34.6308321,56.2494584 34.6308321,54.6730947 Z M51.8530544,48.9587766 C51.8530544,47.3824129 50.5671284,46.1059011 48.982684,46.1059011 C47.3982395,46.1059011 46.1123136,47.3824129 46.1123136,48.9587766 C46.1123136,50.5379959 47.3982395,51.8173635 48.982684,51.8173635 C50.5671284,51.8173635 51.8530544,50.5379959 51.8530544,48.9587766 Z M57.5937951,43.2501698 C57.5937951,41.6709505 56.3078692,40.3915829 54.7234247,40.3915829 C53.1389803,40.3915829 51.8530544,41.6709505 51.8530544,43.2501698 C51.8530544,44.8265335 53.1389803,46.1059011 54.7234247,46.1059011 C56.3078692,46.1059011 57.5937951,44.8265335 57.5937951,43.2501698 Z M51.8530544,37.5387074 C51.8530544,35.959488 50.5671284,34.6829762 48.982684,34.6829762 C47.3982395,34.6829762 46.1123136,35.959488 46.1123136,37.5387074 C46.1123136,39.115071 47.3982395,40.3915829 48.982684,40.3915829 C50.5671284,40.3915829 51.8530544,39.115071 51.8530544,37.5387074 Z M40.3715729,37.5387074 C40.3715729,35.959488 39.0856469,34.6829762 37.5012025,34.6829762 C35.9167581,34.6829762 34.6308321,35.959488 34.6308321,37.5387074 C34.6308321,39.115071 35.9167581,40.3915829 37.5012025,40.3915829 C39.0856469,40.3915829 40.3715729,39.115071 40.3715729,37.5387074 Z M57.5937951,31.8243892 C57.5937951,30.2480256 56.3078692,28.9715137 54.7234247,28.9715137 C53.1389803,28.9715137 51.8530544,30.2480256 51.8530544,31.8243892 C51.8530544,33.4036086 53.1389803,34.6829762 54.7234247,34.6829762 C56.3078692,34.6829762 57.5937951,33.4036086 57.5937951,31.8243892 Z M34.6308321,31.8243892 C34.6308321,30.2480256 33.3449062,28.9715137 31.7604618,28.9715137 C30.1760173,28.9715137 28.8900914,30.2480256 28.8900914,31.8243892 C28.8900914,33.4036086 30.1760173,34.6829762 31.7604618,34.6829762 C33.3449062,34.6829762 34.6308321,33.4036086 34.6308321,31.8243892 Z M51.8530544,26.1157825 C51.8530544,24.5365631 50.5671284,23.2571955 48.982684,23.2571955 C47.3982395,23.2571955 46.1123136,24.5365631 46.1123136,26.1157825 C46.1123136,27.6921461 47.3982395,28.9715137 48.982684,28.9715137 C50.5671284,28.9715137 51.8530544,27.6921461 51.8530544,26.1157825 Z M40.3715729,26.1157825 C40.3715729,24.5365631 39.0856469,23.2571955 37.5012025,23.2571955 C35.9167581,23.2571955 34.6308321,24.5365631 34.6308321,26.1157825 C34.6308321,27.6921461 35.9167581,28.9715137 37.5012025,28.9715137 C39.0856469,28.9715137 40.3715729,27.6921461 40.3715729,26.1157825 Z M46.1123136,20.40432 C46.1123136,18.8251007 44.8263877,17.5485888 43.2419432,17.5485888 C41.6574988,17.5485888 40.3715729,18.8251007 40.3715729,20.40432 C40.3715729,21.9806837 41.6574988,23.2571955 43.2419432,23.2571955 C44.8263877,23.2571955 46.1123136,21.9806837 46.1123136,20.40432 Z M40.3715729,14.6900019 C40.3715729,13.1136382 39.0856469,11.8371264 37.5012025,11.8371264 C35.9167581,11.8371264 34.6308321,13.1136382 34.6308321,14.6900019 C34.6308321,16.2692212 35.9167581,17.5485888 37.5012025,17.5485888 C39.0856469,17.5485888 40.3715729,16.2692212 40.3715729,14.6900019 Z M34.6308321,8.98139515 C34.6308321,7.40217578 33.3449062,6.12280819 31.7604618,6.12280819 C30.1760173,6.12280819 28.8900914,7.40217578 28.8900914,8.98139515 C28.8900914,10.5577588 30.1760173,11.8371264 31.7604618,11.8371264 C33.3449062,11.8371264 34.6308321,10.5577588 34.6308321,8.98139515 Z M63.3345358,94.6533319 C63.3345358,93.0741125 62.0486099,91.7947449 60.4641655,91.7947449 C58.879721,91.7947449 57.5937951,93.0741125 57.5937951,94.6533319 C57.5937951,96.2296955 58.879721,97.5090631 60.4641655,97.5090631 C62.0486099,97.5090631 63.3345358,96.2296955 63.3345358,94.6533319 Z M69.0752766,88.9418695 C69.0752766,87.3626501 67.7893506,86.0861382 66.2049062,86.0861382 C64.6204618,86.0861382 63.3345358,87.3626501 63.3345358,88.9418695 C63.3345358,90.5182331 64.6204618,91.7947449 66.2049062,91.7947449 C67.7893506,91.7947449 69.0752766,90.5182331 69.0752766,88.9418695 Z M69.0752766,77.5189446 C69.0752766,75.9397252 67.7893506,74.6603576 66.2049062,74.6603576 C64.6204618,74.6603576 63.3345358,75.9397252 63.3345358,77.5189446 C63.3345358,79.0953082 64.6204618,80.3746758 66.2049062,80.3746758 C67.7893506,80.3746758 69.0752766,79.0953082 69.0752766,77.5189446 Z M63.3345358,71.8074821 C63.3345358,70.2282627 62.0486099,68.9517509 60.4641655,68.9517509 C58.879721,68.9517509 57.5937951,70.2282627 57.5937951,71.8074821 C57.5937951,73.3838457 58.879721,74.6603576 60.4641655,74.6603576 C62.0486099,74.6603576 63.3345358,73.3838457 63.3345358,71.8074821 Z M69.0752766,66.0931639 C69.0752766,64.5168003 67.7893506,63.2402884 66.2049062,63.2402884 C64.6204618,63.2402884 63.3345358,64.5168003 63.3345358,66.0931639 C63.3345358,67.6723833 64.6204618,68.9517509 66.2049062,68.9517509 C67.7893506,68.9517509 69.0752766,67.6723833 69.0752766,66.0931639 Z M63.3345358,60.3845572 C63.3345358,58.8053378 62.0486099,57.5259702 60.4641655,57.5259702 C58.879721,57.5259702 57.5937951,58.8053378 57.5937951,60.3845572 C57.5937951,61.9609208 58.879721,63.2402884 60.4641655,63.2402884 C62.0486099,63.2402884 63.3345358,61.9609208 63.3345358,60.3845572 Z M63.3345358,48.9587766 C63.3345358,47.3824129 62.0486099,46.1059011 60.4641655,46.1059011 C58.879721,46.1059011 57.5937951,47.3824129 57.5937951,48.9587766 C57.5937951,50.5379959 58.879721,51.8173635 60.4641655,51.8173635 C62.0486099,51.8173635 63.3345358,50.5379959 63.3345358,48.9587766 Z M63.3345358,37.5387074 C63.3345358,35.959488 62.0486099,34.6829762 60.4641655,34.6829762 C58.879721,34.6829762 57.5937951,35.959488 57.5937951,37.5387074 C57.5937951,39.115071 58.879721,40.3915829 60.4641655,40.3915829 C62.0486099,40.3915829 63.3345358,39.115071 63.3345358,37.5387074 Z" id="Combined-Shape"></path>
                </g>
                <path d="M146.038681,90.5706259 C145.630425,91.2020141 145.01793,92.0149542 144.073251,93.1922295 C143.78119,93.5562018 141.853485,95.9236764 141.266008,96.6602059 C140.336292,97.8258044 139.566497,98.8315775 138.871549,99.8020804 C136.153338,103.598094 134.74003,106.599473 134.912704,109.423435 C135.416552,117.693225 130.108515,127.988958 123.435374,131.397321 C120.233406,133.032615 119.078059,135.011583 118.135559,138.867392 C117.572062,141.172679 117.384509,141.803259 116.852555,142.902943 C115.888684,144.896175 114.710394,145.901056 112.687335,146.770871 C112.249474,146.95913 112.208329,146.97508 110.951703,147.452574 C106.241211,149.242471 104.054638,151.269818 103.360245,156.27931 C102.594689,161.795417 99.8736138,164.330745 95.9914593,164.235854 C91.8988465,164.135819 87.1478542,161.121119 84.0147889,156.282352 C80.9995041,151.636152 74.0004959,151.636152 70.9868363,156.279844 C67.8521458,161.121119 63.1011535,164.135819 59.0085407,164.235854 C55.1263862,164.330745 52.4053107,161.795417 51.6396893,156.27884 C50.9436733,151.269509 48.7572189,149.242525 44.0473707,147.452622 C42.7917843,146.975456 42.7502113,146.959338 42.3125392,146.771143 C40.2896237,145.901312 39.1114479,144.896448 38.1476068,142.903278 C37.6154913,141.803259 37.4279377,141.172679 36.864441,138.867392 C35.9219405,135.011583 34.7665942,133.032615 31.5645382,131.397276 C24.8914855,127.988958 19.5834483,117.693225 20.0873339,109.422814 C20.2583823,106.598548 18.8446557,103.597986 16.1262694,99.8020011 C15.4321868,98.8327765 14.6634765,97.8283266 13.7350598,96.6641277 C13.1489419,95.9291584 11.2226157,93.5627834 10.9270072,93.1942571 C9.98249232,92.0167586 9.36997342,91.2033124 8.96208078,90.5718053 C4.66695308,83.9217909 4.66695308,74.6079126 8.96210372,67.9578627 C11.7760217,63.6013016 13.4169011,55.1784231 13.0492479,49.1079136 C12.5479756,40.8803916 16.9759382,32.4000357 23.6850842,28.9745211 C24.7383523,28.4362424 25.2559271,28.2621875 27.573922,27.5894333 C31.3520503,26.4929031 33.3101319,25.2295424 34.8921062,21.9614722 C38.0408453,15.4475958 40.1292731,14.4602604 48.6114058,15.0049687 C50.9654968,15.1563422 52.872642,14.2509325 54.9135503,12.4680484 C55.3329847,12.1016416 55.7412179,11.7166978 56.299058,11.1705141 C56.4410499,11.0314892 56.9239805,10.5559092 56.9539012,10.5265125 C57.2089798,10.2759006 57.4061155,10.0841643 57.5986761,9.90015013 C59.7881544,7.80784794 61.4210342,6.80452184 63.580976,6.47673368 C64.313154,6.29034154 64.313154,6.29034154 64.7376634,6.03887149 C65.0230525,5.83499176 65.0230525,5.83499176 65.1100653,5.75616601 C65.1188189,5.74841715 65.1188189,5.74841715 65.120775,5.74667761 C65.0632542,5.8036314 65.0632542,5.8036314 64.6920372,6.05469469 L64.8559283,5.95205458 C65.2141101,5.71057717 66.1617061,5.70356512 67.5225751,6.15968445 C69.0940577,6.68639465 70.8442017,7.72261652 72.2676547,8.96637169 C75.1520871,11.4823539 79.3377768,11.5213824 82.4074766,9.20865432 C84.6484464,7.52320016 88.1218564,6.44370553 91.7542593,6.44370553 C90.6097854,6.26166813 90.6097854,6.26166813 90.0097016,5.8455221 C89.6747906,5.54520271 89.6747906,5.54520271 89.6370582,5.49468526 C89.6963184,5.56983339 89.6963184,5.56983339 90.0541924,5.89067835 C90.6786743,6.32324484 90.6786743,6.32324484 91.8518519,6.50938735 C93.9651433,6.50938735 95.4958438,7.44682879 97.8247353,9.87839119 C98.0589076,10.1228872 98.9037878,11.0207876 98.8667929,10.9816761 C99.3060969,11.4461141 99.6399825,11.7887489 99.9770143,12.1155222 C102.056591,14.1318012 103.952814,15.1615951 106.388835,15.0049532 C114.870727,14.4602604 116.959155,15.4475958 120.10721,21.9600577 C121.689868,25.2295424 123.64795,26.4929031 127.426078,27.5894333 C129.744073,28.2621875 130.261648,28.4362424 131.313936,28.9740209 C138.024062,32.4000357 142.452024,40.8803916 141.950814,49.1068893 C141.582834,55.1828014 143.222317,63.603433 146.038681,67.9590777 C150.333047,74.6079126 150.333047,83.9217909 146.037896,90.5718408 L146.038681,90.5706259 Z M150.867474,93.6594438 C156.377509,85.1284265 156.377509,73.4012771 150.867474,64.8702598 C148.791671,61.6599284 147.380632,54.412619 147.6811,49.4514343 C148.315131,39.0449125 142.754733,28.3957364 133.93601,23.8931271 C132.436228,23.1266543 131.727492,22.8883138 129.033751,22.1065063 C126.665148,21.4190641 126.013664,20.998725 125.280069,19.4832512 C121.024231,10.6790889 116.671498,8.62126971 106.018813,9.30536727 C105.585705,9.33321714 105.010675,9.02093188 103.98364,8.02515805 C103.717356,7.76697945 103.434861,7.4770812 103.047446,7.06750084 C103.100264,7.12334074 102.235628,6.2044454 101.980765,5.93834585 C98.6688462,2.48041897 95.9215872,0.797924901 91.8518519,0.797924901 C92.9963257,0.979962303 92.9963257,0.979962303 93.5964095,1.39610834 C93.9313205,1.69642772 93.9313205,1.69642772 93.9690529,1.74694517 C93.9097927,1.67179704 93.9097927,1.67179704 93.5519187,1.35095209 C92.9274368,0.918385598 92.9274368,0.918385598 91.7542593,0.732243083 C86.9115386,0.732243083 82.2189092,2.19065664 78.9436782,4.65398997 C77.9954522,5.36838728 76.8384823,5.35759937 76.0540294,4.67335097 C71.4641028,0.662858705 65.4551135,-1.35116033 61.6355532,1.22389404 L63.2457407,3.58797431 L61.7994443,1.12125393 C61.391326,1.3971249 61.391326,1.3971249 61.2995695,1.48431306 C61.2959673,1.48750973 61.2959673,1.48750973 61.2991713,1.48467348 C61.3598235,1.4288601 61.3598235,1.4288601 61.6179148,1.24439601 C62.0141891,1.00927772 62.0141891,1.00927772 62.7116877,0.831132207 C59.1525869,1.37125138 56.5866279,2.94790973 53.6219199,5.78103452 C53.8153994,5.59614223 51.6309841,7.73491268 51.1257951,8.1762326 C50.1183746,9.05628882 49.5206504,9.34005602 48.9814277,9.30538275 C38.3285015,8.62126971 33.9757689,10.6790889 29.7192467,19.4846656 C28.9863357,20.998725 28.3348524,21.4190641 25.9662495,22.1065063 C23.2725081,22.8883138 22.5637719,23.1266543 21.0630106,23.8936273 C12.2452671,28.3957364 6.68486909,39.0449125 7.31896244,49.4524586 C7.61913942,54.4088374 6.20673212,61.6589344 4.13254885,64.8702243 C-1.37750864,73.4012771 -1.37750864,85.1284265 4.13252591,93.6594438 C4.67384884,94.4975302 5.38128005,95.4370233 6.43996762,96.7568575 C6.75478001,97.1493247 8.67416657,99.5071748 9.23786401,100.21403 C10.1097685,101.307364 10.8218519,102.237822 11.450823,103.116124 C13.4411426,105.895428 14.4235333,107.980502 14.3570484,109.078269 C13.7209559,119.518624 20.1490392,131.986853 28.9427815,136.478332 C30.3334325,137.188558 30.6991246,137.814945 31.2862809,140.217025 C31.9480811,142.924477 32.2054238,143.789697 32.9745924,145.379765 C34.5938928,148.728389 36.8305092,150.635994 40.0350364,152.013906 C40.3547893,152.151396 40.6828448,152.284104 41.0621737,152.431175 C41.3001689,152.523449 41.5471578,152.617183 41.9988718,152.788083 C44.954429,153.911296 45.5983453,154.508248 45.952964,157.060491 C47.1027591,165.34518 52.2219524,170.114924 59.1495381,169.945594 C65.2757268,169.795851 71.7060836,165.715527 75.8112704,159.375395 C76.5619115,158.218749 78.4380885,158.218749 79.1903549,159.377903 C83.2939164,165.715527 89.7242732,169.795851 95.8504619,169.945594 C102.778048,170.114924 107.897241,165.34518 109.047097,157.060054 C109.400873,154.507839 110.044381,153.911191 112.999952,152.788131 C113.451856,152.617183 113.698982,152.523411 113.937057,152.431119 C114.316565,152.284 114.644768,152.151248 114.964665,152.013708 C118.169384,150.635838 120.406186,148.728225 122.02557,145.379429 C122.794576,143.789697 123.051919,142.924477 123.713719,140.217025 C124.300875,137.814945 124.666568,137.188558 126.057131,136.478376 C134.850961,131.986853 141.279044,119.518624 140.642889,109.077245 C140.57576,107.979392 141.557442,105.894638 143.547109,103.116044 C144.176785,102.236694 144.889808,101.305098 145.762862,100.210536 C146.327888,99.5021547 148.248446,97.1434562 148.559656,96.7556207 C149.618192,95.4364554 150.325319,94.4979134 150.866689,93.6606587 L150.867474,93.6594438 Z" id="Stroke-42" fill="#FFFFFF"></path>
            </g>
        </g>
    </g>
</svg>