<?xml version="1.0" encoding="UTF-8" standalone="no"?>
<svg width="640px" height="360px" viewBox="0 0 640 360" version="1.1" xmlns="http://www.w3.org/2000/svg" xmlns:xlink="http://www.w3.org/1999/xlink" xmlns:sketch="http://www.bohemiancoding.com/sketch/ns">
    <!-- Generator: Sketch 3.3.2 (12043) - http://www.bohemiancoding.com/sketch -->
    <title>segment</title>
    <desc>Created with Sketch.</desc>
    <defs>
        <linearGradient x1="0%" y1="19.8765281%" x2="100%" y2="79.8857577%" id="linearGradient-1">
            <stop stop-color="#65D165" offset="0%"></stop>
            <stop stop-color="#57D39C" offset="100%"></stop>
        </linearGradient>
        <rect id="path-2" x="0" y="0" width="640" height="360"></rect>
    </defs>
    <g id="Ships" stroke="none" stroke-width="1" fill="none" fill-rule="evenodd" sketch:type="MSPage">
        <g id="segment" sketch:type="MSLayerGroup">
            <mask id="mask-3" sketch:name="Mask" fill="white">
                <use xlink:href="#path-2"></use>
            </mask>
            <use id="Mask" fill="url(#linearGradient-1)" sketch:type="MSShapeGroup" xlink:href="#path-2"></use>
            <path d="M210.160462,192.573307 C210.160462,189.212149 209.081489,186.280078 206.995473,183.920115 C205.05332,181.631668 203.25503,180.487443 197.572434,177.698398 C193.400402,175.624491 191.674044,174.623296 190.163481,173.407558 C188.652918,172.120307 187.789738,170.332456 187.789738,168.473092 C187.789738,164.754365 190.667002,162.322889 195.054829,162.322889 C197.140845,162.322889 199.226861,162.823488 200.809356,163.824683 C202.247988,164.682852 203.039235,165.54102 204.62173,167.68644 L205.772636,167.614927 L206.348088,165.397991 L207.427062,161.822293 L208.434105,159.104761 C204.549799,157.602966 202.895372,157.10237 199.874245,156.816314 C198.795271,156.673284 197.644366,156.601771 196.493461,156.601771 C185.200201,156.601771 177.575453,163.038031 177.575453,172.477876 C177.575453,176.053577 178.870221,179.271705 181.172032,181.560155 C183.186117,183.491032 185.056338,184.635253 190.667002,187.424299 C194.982897,189.712749 196.565392,190.713944 197.932092,192.072708 C199.15493,193.288446 199.874245,195.076297 199.874245,196.864147 C199.874245,201.083474 196.349597,203.944033 191.242455,203.944033 C188.724849,203.944033 186.351107,203.157377 184.26509,201.655583 C182.826459,200.582875 182.107143,199.724706 180.596579,197.507773 L179.301811,197.722316 L178.726358,200.725901 L177.863179,204.301602 L177,207.090648 C180.740443,208.592442 182.251006,208.950012 185.415996,209.379094 C186.854628,209.522124 188.293259,209.593637 189.65996,209.593637 C201.600603,209.593637 210.160462,202.442239 210.160462,192.573307 C210.160462,192.573307 210.160462,202.442239 210.160462,192.573307 L210.160462,192.573307 L210.160462,192.573307 Z M247.277163,185.850991 C247.277163,177.412342 241.522635,171.905764 232.67505,171.905764 C222.388833,171.905764 215.267605,179.629275 215.267605,190.785457 C215.267605,202.013156 222.532696,209.379094 233.538229,209.379094 C235.983903,209.379094 238.933098,209.021525 241.450704,208.449412 C242.098088,208.306386 243.033199,208.02033 244.184104,207.66276 L245.263078,204.516145 L246.629778,201.154987 L245.622736,200.582875 C243.680583,202.013156 242.745472,202.513752 241.019114,202.799808 C240.012072,203.014351 239.00503,203.085864 237.926056,203.085864 C230.229376,203.085864 225.769617,198.294428 225.553823,189.927292 L228.934607,189.784262 L235.552314,189.712749 L242.961267,189.784262 L246.342052,189.784262 L247.133299,188.85458 C247.205231,187.567329 247.277163,186.566134 247.277163,185.850991 C247.277163,185.850991 247.277163,186.566134 247.277163,185.850991 L247.277163,185.850991 L247.277163,185.850991 Z M237.63833,182.060751 C237.63833,184.277684 236.487424,185.207366 233.538229,185.278882 L228.790744,185.421909 L225.481891,185.421909 C225.697686,181.774695 225.91348,180.630473 226.920523,178.985649 C228.071428,177.054772 229.797786,176.12509 232.099597,176.12509 C235.264587,176.12509 237.63833,178.699593 237.63833,182.060751 C237.63833,182.060751 237.63833,178.699593 237.63833,182.060751 L237.63833,182.060751 L237.63833,182.060751 Z M288.925553,173.765127 L288.422032,173.121502 C285.688631,173.407558 284.537726,173.479071 282.523641,173.479071 L275.977867,173.550588 C273.460261,172.620906 271.661971,172.33485 268.42505,172.33485 C258.858149,172.33485 253.03169,176.697203 253.03169,183.848601 C253.03169,188.210954 254.973843,191.357569 259.217806,193.574503 L255.621227,196.506578 C253.535211,198.222912 252.6001,199.724706 252.6001,201.441043 C252.6001,203.443434 254.110663,205.374311 256.628269,206.375509 L258.066901,206.947618 L256.124748,207.948816 C253.607143,209.236068 252.887827,209.736664 251.880784,210.809375 C250.80181,212.025113 250.226358,213.526908 250.226358,215.314755 C250.226358,221.321932 256.700201,225.398229 266.267102,225.398229 C278.351609,225.398229 286.407947,219.534081 286.407947,210.809375 C286.407947,204.301602 282.307846,201.011957 274.107645,201.011957 L270.439134,201.011957 C263.46177,201.011957 260.872233,200.082276 260.872233,197.579286 C260.872233,196.578091 261.303822,195.862952 262.742454,194.575701 C264.468812,194.93327 265.116197,195.004784 266.914486,195.004784 C276.697183,195.004784 282.523641,190.499401 282.523641,183.061946 C282.523641,180.845013 282.235915,179.915331 281.013078,177.984454 L281.732394,177.984454 C281.948189,177.912941 282.235915,177.912941 282.45171,177.912941 C283.602615,177.912941 284.465794,177.984454 286.623742,178.12748 L287.702716,175.910547 L288.925553,173.765127 L288.925553,173.765127 Z M273.100603,184.492227 C273.100603,188.783067 271.302314,191.071513 267.921529,191.071513 C264.396881,191.071513 262.454728,188.067928 262.454728,182.847406 C262.454728,178.62808 263.965291,176.554173 267.202213,176.268117 C267.346076,176.268117 267.489939,176.196603 267.705734,176.196603 C271.086519,176.196603 273.100603,179.200192 273.100603,184.492227 C273.100603,184.492227 273.100603,179.200192 273.100603,184.492227 L273.100603,184.492227 L273.100603,184.492227 Z M277.92002,214.027503 C277.92002,218.032287 273.532193,220.74982 267.202213,220.74982 C261.159959,220.74982 257.347585,218.318343 257.347585,214.385073 C257.347585,212.454196 258.426559,210.880888 260.512575,209.736664 C261.879275,208.950012 262.670523,208.806982 265.835513,208.806982 C271.949698,208.806982 273.89185,209.021525 275.69014,210.094236 C277.128772,210.880888 277.92002,212.382683 277.92002,214.027503 C277.92002,214.027503 277.92002,212.382683 277.92002,214.027503 L277.92002,214.027503 L277.92002,214.027503 Z M350.930583,208.091843 C349.92354,205.016741 349.420019,201.083474 349.491951,194.575701 L349.563882,185.636452 C349.635814,180.487443 349.204224,178.62808 347.693661,176.48266 C345.82344,173.97967 342.802313,172.620906 339.06187,172.620906 C335.537222,172.620906 332.588027,173.908157 329.207243,176.768716 L326.186116,179.343218 C324.603621,174.837839 321.294768,172.620906 316.331488,172.620906 C312.734909,172.620906 309.857645,173.908157 306.404929,176.768716 L303.527665,179.200192 L303.671529,173.121502 L300.218812,173.336045 L294.464285,173.479071 L291.587021,173.622101 L290.14839,176.840229 L290.723842,176.840229 C292.450201,176.840229 293.529174,177.555371 293.888832,179.057162 C294.24849,180.487443 294.464285,182.990433 294.464285,186.494617 L294.320422,194.504184 C294.320422,198.294428 294.104627,203.157377 293.888832,204.873715 C293.816901,205.588854 293.673038,206.661565 293.457243,208.091843 L296.47837,207.948816 L302.160965,207.948816 L305.325955,208.091843 C304.318913,205.016741 303.887323,201.083474 303.887323,194.575701 L303.887323,189.498206 C303.887323,185.064339 304.318913,183.634058 306.045271,181.846208 C307.555834,180.344417 309.426056,179.486248 311.512072,179.486248 C313.957746,179.486248 315.97183,180.845013 316.691146,182.990433 C317.050804,184.134658 317.194667,185.564935 317.194667,188.139441 L317.194667,188.497011 L317.122736,194.504184 C317.050804,198.508968 316.835009,203.157377 316.619215,204.873715 C316.619215,205.588854 316.475351,206.661565 316.259557,208.091843 L319.280683,207.948816 L324.963279,207.948816 L328.128269,208.091843 C327.121227,205.016741 326.689637,201.083474 326.689637,194.575701 L326.689637,189.498206 C326.689637,184.992826 327.121227,183.634058 328.847585,181.846208 C330.358148,180.344417 332.300301,179.486248 334.314385,179.486248 C336.831991,179.486248 338.846075,180.845013 339.49346,182.990433 C339.853118,184.206171 339.996981,185.493422 339.996981,188.067928 L339.996981,188.497011 L339.996981,194.504184 C339.996981,198.508968 339.781186,203.157377 339.565391,204.873715 C339.49346,205.588854 339.277665,206.661565 339.06187,208.091843 L342.082997,207.948816 L347.765593,207.948816 L350.930583,208.091843 L350.930583,208.091843 Z M389.413983,185.850991 C389.413983,177.412342 383.659456,171.905764 374.81187,171.905764 C364.525653,171.905764 357.404426,179.629275 357.404426,190.785457 C357.404426,202.013156 364.669516,209.379094 375.675049,209.379094 C378.120723,209.379094 381.069919,209.021525 383.587524,208.449412 C384.234908,208.306386 385.170019,208.02033 386.320925,207.66276 L387.399898,204.516145 L388.766598,201.154987 L387.759556,200.582875 C385.817403,202.013156 384.882292,202.513752 383.155935,202.799808 C382.148892,203.014351 381.14185,203.085864 380.062876,203.085864 C372.366196,203.085864 367.906438,198.294428 367.690643,189.927292 L371.071427,189.784262 L377.689134,189.712749 L385.098087,189.784262 L388.478872,189.784262 L389.270119,188.85458 C389.342051,187.567329 389.413983,186.566134 389.413983,185.850991 C389.413983,185.850991 389.413983,186.566134 389.413983,185.850991 L389.413983,185.850991 L389.413983,185.850991 Z M379.77515,182.060751 C379.77515,184.277684 378.624244,185.207366 375.675049,185.278882 L370.927564,185.421909 L367.618711,185.421909 C367.834506,181.774695 368.050301,180.630473 369.057343,178.985649 C370.208248,177.054772 371.934607,176.12509 374.236417,176.12509 C377.401407,176.12509 379.77515,178.699593 379.77515,182.060751 C379.77515,182.060751 379.77515,178.699593 379.77515,182.060751 L379.77515,182.060751 L379.77515,182.060751 Z M432.069416,208.091843 C431.062374,205.016741 430.558851,201.083474 430.630785,194.575701 L430.702714,185.636452 C430.774648,180.558957 430.343058,178.62808 428.760561,176.48266 C426.818411,173.97967 423.797282,172.620906 419.912975,172.620906 C416.172534,172.620906 413.439132,173.836644 409.770621,176.768716 L406.821427,179.128679 L406.96529,173.121502 L403.584506,173.336045 L397.829979,173.479071 L394.952715,173.622101 L393.514083,176.840229 L394.089536,176.840229 C395.815894,176.840229 396.822937,177.555371 397.182594,179.057162 C397.542252,180.487443 397.829979,182.990433 397.829979,186.494617 L397.686115,194.504184 C397.686115,198.294428 397.470321,203.157377 397.254526,204.873715 C397.182594,205.588854 397.038731,206.661565 396.751005,208.091843 L399.772132,207.948816 L405.454727,207.948816 L408.619716,208.091843 C407.612675,205.016741 407.181085,201.011957 407.181085,194.575701 L407.181085,189.498206 C407.181085,185.064339 407.612675,183.634058 409.410965,181.846208 C410.921529,180.344417 412.935613,179.486248 415.021629,179.486248 C417.683098,179.486248 419.841045,180.845013 420.560361,182.990433 C420.99195,184.206171 421.135813,185.564935 421.135813,188.497011 L421.135813,194.504184 C421.135813,195.719922 421.063883,197.43626 420.99195,199.724706 C420.92002,202.013156 420.848087,203.72949 420.704224,204.873715 C420.632294,205.588854 420.416497,206.661565 420.200705,208.091843 L423.22183,207.948816 L428.904424,207.948816 L432.069416,208.091843 L432.069416,208.091843 Z M463,173.908157 L462.496477,173.193018 C460.410461,173.622101 459.835008,173.693614 457.461265,173.693614 L457.029676,173.693614 L452.066397,173.622101 C452.21026,168.187036 452.28219,167.257354 452.785713,163.8962 L451.994464,163.109544 L449.548791,164.468309 L445.089032,166.470702 L442.355633,167.400384 C442.571426,170.618512 442.643359,171.262138 442.643359,173.550588 L438.902915,173.622101 L437.464284,177.197798 L438.687122,177.197798 C440.413479,177.197798 441.420521,177.912941 441.78018,179.414735 C442.139836,180.845013 442.427563,183.348002 442.355633,187.138246 L442.283699,194.075102 L442.283699,197.364747 C442.283699,205.731883 445.376758,209.307581 452.569916,209.307581 C454.87173,209.307581 456.957746,208.950012 461.129776,207.805787 L461.849092,204.802202 L462.568407,202.513752 L461.705229,202.013156 C459.906942,202.942838 458.684103,203.300407 457.101609,203.300407 C454.655933,203.300407 452.857643,201.941639 452.28219,199.58168 C451.922534,198.151399 451.850601,197.07869 451.850601,193.431476 L451.850601,192.930877 L451.850601,185.350396 L452.066397,178.771109 L454.943659,178.771109 C457.173539,178.771109 458.180581,178.842623 460.985913,179.057162 L461.921025,176.411146 L463,173.908157 L463,173.908157 Z" id="logo" fill="#FFFFFF" sketch:type="MSShapeGroup" mask="url(#mask-3)"></path>
        </g>
    </g>
</svg>